<svg xmlns="http://www.w3.org/2000/svg" width="1028" height="1020" viewBox="0 0 1028 1020">
<g>
<path d="M 227.93 480.50 C227.27,487.10 226.44,493.80 226.08,495.40 L 225.43 498.30 L 223.82 495.84 C222.93,494.50 219.85,490.80 216.96,487.64 L 211.70 481.89 L 212.92 471.88 C214.12,461.95 214.18,461.79 219.62,454.75 C234.26,435.81 240.71,410.83 236.82,388.14 L 235.63 381.24 L 244.75 362.87 C258.85,334.47 272.27,314.34 292.70,290.98 C340.11,236.75 407.19,199.10 478.91,186.44 C511.19,180.74 554.94,180.54 588.17,185.93 C635.75,193.65 684.78,214.30 724.50,243.34 C734.84,250.90 747.00,261.05 747.00,262.11 C747.00,262.66 742.64,262.78 736.25,262.42 C722.24,261.61 710.59,264.06 697.06,270.64 C688.85,274.63 686.21,276.60 677.95,284.89 C669.90,292.97 667.59,296.05 663.44,304.25 C660.72,309.61 658.28,313.97 658.00,313.94 C657.72,313.91 655.79,311.23 653.70,307.98 C644.59,293.82 629.62,285.87 609.23,284.36 C602.58,283.87 598.34,284.43 579.00,288.36 C566.62,290.87 546.41,294.97 534.07,297.47 C521.74,299.96 510.56,302.71 509.24,303.58 C507.92,304.44 506.17,304.89 505.34,304.58 C504.04,304.08 473.07,308.27 469.00,309.50 C468.17,309.75 463.23,310.61 458.00,311.43 C452.77,312.24 440.40,314.30 430.50,316.00 C413.43,318.93 403.80,320.55 389.00,322.96 C377.24,324.88 372.53,326.22 370.26,328.29 C368.05,330.30 367.99,330.30 365.90,328.41 C363.96,326.66 362.14,326.50 344.64,326.56 C327.14,326.61 324.67,326.84 315.82,329.26 C287.66,336.98 272.18,349.58 257.20,377.00 C244.11,400.96 231.33,446.15 227.93,480.50 ZM 562.17 959.97 C493.78,964.58 419.52,951.80 355.15,924.33 C284.59,894.22 223.66,847.78 175.19,787.14 C164.07,773.24 153.48,758.00 154.93,758.00 C156.02,758.00 173.24,762.88 173.56,763.27 C173.66,763.40 176.79,767.55 180.53,772.50 C206.71,807.22 243.28,842.21 280.00,867.68 C340.58,909.69 407.61,935.21 482.00,944.57 C502.38,947.13 553.83,947.69 575.10,945.58 C630.15,940.11 677.04,927.16 725.65,903.99 C815.45,861.19 888.95,788.16 932.46,698.50 C954.77,652.54 967.69,607.64 974.18,553.50 C975.95,538.74 975.97,476.51 974.21,461.50 C964.99,382.85 938.93,314.13 895.13,253.00 C838.75,174.30 758.09,115.91 666.50,87.50 C622.27,73.78 583.42,68.04 534.50,68.00 C495.62,67.97 469.81,70.71 434.57,78.63 C307.84,107.10 200.48,189.98 140.11,305.93 L 131.50 322.46 L 122.14 324.19 C98.69,328.51 83.59,336.25 69.50,351.15 C56.94,364.43 48.09,379.81 43.36,396.56 C40.89,405.33 40.56,408.15 40.58,420.50 C40.60,435.50 42.15,443.68 47.43,456.65 C51.47,466.56 60.06,480.00 67.25,487.66 L 70.21 490.81 L 65.86 494.59 C51.60,506.94 37.42,525.02 31.50,538.40 C26.20,550.38 23.85,560.70 23.28,574.54 C22.50,593.06 24.06,600.17 33.58,621.52 C33.83,622.09 32.67,623.06 31.00,623.69 C28.05,624.81 27.90,624.72 25.78,620.67 C14.69,599.47 10.96,581.15 13.47,560.15 C16.31,536.30 30.50,512.90 53.26,494.50 L 56.97 491.50 L 52.00 485.00 C39.29,468.39 31.89,449.12 29.92,427.50 C28.43,411.09 30.19,398.09 36.13,381.63 C42.93,362.80 57.10,342.58 69.50,334.03 C80.78,326.24 98.52,319.79 112.28,318.48 L 119.07 317.83 L 124.50 307.01 C189.35,177.70 309.12,87.50 450.50,61.50 C481.26,55.84 495.67,54.65 533.50,54.61 C569.99,54.58 580.95,55.37 609.50,60.09 C677.41,71.30 743.38,98.36 797.99,137.40 C902.29,211.98 969.82,323.93 985.94,449.00 C991.19,489.77 991.19,524.23 985.94,565.00 C969.02,696.31 895.46,813.29 783.93,886.28 C717.53,929.73 642.93,954.51 562.17,959.97 ZM 275.00 335.09 C275.00,335.55 277.76,334.32 281.14,332.34 C291.19,326.45 301.67,321.98 311.88,319.22 C320.85,316.81 323.16,316.62 346.00,316.41 L 370.50 316.19 L 425.00 306.53 C454.98,301.22 504.92,292.55 536.00,287.27 C586.48,278.69 593.89,277.66 605.50,277.59 C617.28,277.51 619.33,277.77 627.35,280.40 C636.05,283.25 648.50,290.43 652.40,294.85 C653.45,296.03 654.80,296.98 655.40,296.96 C656.01,296.94 658.49,294.25 660.93,290.98 C666.95,282.91 680.62,269.46 687.50,264.83 C693.64,260.71 702.93,257.43 711.24,256.46 C719.85,255.45 719.85,255.28 711.42,249.38 C672.59,222.18 624.74,203.60 576.50,197.00 C551.94,193.65 514.47,193.87 490.00,197.53 C405.48,210.16 332.66,254.60 282.14,324.37 C278.21,329.79 275.00,334.62 275.00,335.09 ZM 552.50 830.00 C544.25,830.53 535.25,830.91 532.50,830.84 C462.32,829.04 399.60,808.10 344.66,768.13 L 332.82 759.52 L 335.92 758.25 C337.62,757.56 340.92,756.48 343.26,755.86 C347.48,754.73 347.53,754.74 355.40,760.39 C396.13,789.63 443.31,808.03 497.09,815.65 C513.97,818.04 554.24,818.07 572.03,815.70 C644.65,806.03 708.10,774.23 757.65,722.66 C764.21,715.83 771.13,708.18 773.04,705.66 L 776.50 701.06 L 784.81 701.03 L 793.13 701.00 L 784.83 711.15 C737.28,769.30 671.38,809.30 599.07,823.90 C581.07,827.53 571.71,828.76 552.50,830.00 ZM 494.68 159.16 C490.25,161.42 482.70,162.32 478.76,161.06 C467.89,157.56 461.64,148.40 458.43,131.26 C453.91,107.17 463.85,91.66 482.78,93.23 C489.67,93.80 495.43,97.80 499.79,105.04 C505.01,113.72 506.50,119.93 506.50,133.00 C506.50,143.16 506.22,145.02 504.13,149.00 C501.01,154.95 499.26,156.83 494.68,159.16 ZM 552.86 156.07 C549.75,157.66 546.98,158.00 537.29,157.98 C530.81,157.98 524.87,157.57 524.09,157.08 C522.89,156.32 522.86,151.89 523.88,126.84 C524.53,110.71 525.31,95.99 525.60,94.13 L 526.13 90.77 L 538.82 91.19 C553.65,91.69 556.67,92.83 560.91,99.53 C564.88,105.78 566.36,113.96 565.76,126.23 C565.00,141.75 560.49,152.18 552.86,156.07 ZM 779.75 217.81 C769.71,230.86 760.57,242.81 759.44,244.37 L 757.38 247.19 L 753.94 244.40 C752.05,242.86 750.33,241.49 750.13,241.35 C749.93,241.21 756.59,232.24 764.93,221.43 C773.27,210.61 779.96,201.64 779.80,201.48 C779.63,201.33 771.20,208.58 761.05,217.60 C750.90,226.62 742.22,234.00 741.75,234.00 C741.28,234.00 739.38,232.79 737.53,231.32 L 734.17 228.64 L 745.14 206.71 C751.18,194.65 755.93,184.60 755.71,184.38 C755.49,184.16 748.86,192.42 740.99,202.74 C733.12,213.06 726.55,221.66 726.40,221.85 C725.89,222.51 718.93,216.71 719.22,215.86 C719.88,213.88 759.46,163.00 760.33,163.00 C761.10,163.00 766.35,166.84 771.28,171.00 C771.71,171.37 767.55,180.85 762.03,192.08 C756.52,203.31 752.00,212.93 752.00,213.46 C752.00,213.99 754.14,212.38 756.75,209.88 C764.55,202.42 785.78,184.00 786.58,184.00 C787.81,184.00 798.00,192.18 798.00,193.16 C798.00,193.67 789.79,204.76 779.75,217.81 ZM 645.25 906.61 C642.09,907.52 638.91,908.50 638.18,908.77 C637.18,909.15 637.00,908.44 637.44,905.88 C639.22,895.48 644.97,842.04 645.01,835.50 C645.02,833.94 646.61,832.90 652.22,830.79 C656.18,829.30 659.44,828.18 659.47,828.29 C659.92,830.15 683.42,862.69 693.76,875.78 L 701.09 885.06 L 697.29 886.64 C695.21,887.51 692.27,888.86 690.76,889.63 C688.04,891.03 687.97,890.98 683.76,885.08 C681.42,881.79 678.89,879.08 678.14,879.05 C677.39,879.02 671.26,881.09 664.51,883.63 L 652.25 888.27 L 651.63 893.38 C651.29,896.20 651.01,899.95 651.01,901.72 C651.00,904.78 650.71,905.03 645.25,906.61 ZM 334.38 858.74 C332.25,864.93 330.05,869.98 329.50,869.98 C328.72,869.97 319.73,864.80 318.19,863.48 C317.55,862.93 341.79,801.57 342.79,801.24 C343.76,800.91 348.93,803.65 367.28,814.22 C376.07,819.28 379.27,823.93 379.81,832.38 C380.35,840.79 378.63,846.40 374.00,851.36 C370.31,855.32 369.88,855.50 364.16,855.50 C359.01,855.50 356.90,854.85 348.88,850.76 C343.76,848.16 339.28,846.36 338.92,846.76 C338.56,847.17 336.52,852.56 334.38,858.74 ZM 500.36 916.85 C500.04,919.91 500.01,921.52 499.19,922.27 C498.31,923.08 496.50,922.89 492.40,922.45 C491.85,922.39 491.25,922.33 490.61,922.26 L 486.73 921.86 L 487.29 916.18 C487.60,913.06 488.66,897.34 489.63,881.25 C491.29,854.06 491.54,852.00 493.27,852.00 C501.70,852.00 524.95,854.44 527.10,855.55 C530.86,857.50 534.75,862.42 535.96,866.78 C538.27,875.12 536.63,885.43 532.21,890.32 C528.25,894.70 523.64,896.00 512.04,896.00 L 501.00 896.00 L 501.00 903.35 C501.00,907.40 500.71,913.47 500.36,916.85 ZM 729.68 871.59 C724.71,873.97 721.18,874.99 718.03,874.96 C711.29,874.90 704.49,870.74 701.39,864.77 C699.99,862.07 700.03,862.00 705.52,858.36 L 711.07 854.67 L 714.28 857.77 C716.05,859.47 718.67,861.15 720.11,861.50 C725.68,862.88 735.86,855.97 738.05,849.34 C739.40,845.27 738.58,842.43 735.50,840.41 C733.34,838.99 732.26,839.08 722.49,841.43 C709.52,844.56 705.92,844.63 700.19,841.85 C696.55,840.09 695.30,838.72 693.25,834.24 C690.20,827.56 690.59,821.07 694.46,814.47 C702.29,801.11 721.75,794.45 730.50,802.14 C736.73,807.60 736.75,808.46 730.76,812.31 L 725.50 815.70 L 722.67 813.35 C719.34,810.58 718.17,810.48 713.22,812.55 C704.21,816.31 700.22,824.13 705.53,827.61 C707.92,829.18 708.69,829.12 719.68,826.52 C734.50,823.02 739.69,823.34 744.54,828.04 C749.39,832.74 751.41,838.59 750.73,846.01 C749.76,856.79 742.72,865.34 729.68,871.59 ZM 587.73 919.61 C587.58,919.75 585.13,920.18 582.28,920.56 C577.39,921.21 577.07,921.11 576.60,918.87 C575.77,914.87 570.68,851.98 571.16,851.51 C571.40,851.26 574.05,850.80 577.05,850.47 L 582.50 849.88 L 586.90 856.69 C593.41,866.75 613.04,893.00 614.06,893.00 C614.55,893.00 614.70,891.76 614.40,890.25 C612.37,880.02 607.41,845.37 607.90,844.80 C608.23,844.42 610.39,843.80 612.70,843.43 C616.56,842.82 616.95,842.96 617.43,845.13 C619.47,854.23 628.94,910.29 628.55,910.92 C628.28,911.36 625.33,912.29 621.99,913.00 C616.69,914.13 615.78,914.09 614.72,912.74 C606.85,902.73 594.15,885.79 589.47,879.09 C586.25,874.46 583.45,871.16 583.25,871.74 C583.06,872.32 584.04,883.27 585.44,896.07 C586.84,908.87 587.87,919.46 587.73,919.61 ZM 378.87 428.00 C378.22,440.38 377.40,451.08 377.04,451.79 C376.63,452.59 375.45,451.08 373.94,447.82 C369.13,437.45 362.58,428.58 357.15,425.10 C343.06,416.05 324.54,415.67 307.59,424.07 C304.34,425.68 301.48,427.00 301.23,427.00 C299.30,427.00 306.38,404.21 312.06,392.18 C317.34,380.98 320.23,377.00 323.07,377.00 C325.08,377.00 326.21,381.11 328.42,396.49 C329.74,405.65 330.13,406.73 333.07,409.36 C335.88,411.87 336.88,412.17 341.02,411.77 C343.62,411.52 351.70,408.93 358.98,406.01 C375.81,399.25 375.99,399.01 376.00,383.25 L 376.00 372.00 L 381.31 372.00 L 380.68 388.75 C380.33,397.96 379.51,415.62 378.87,428.00 ZM 320.50 226.75 C318.59,227.99 316.90,229.00 316.74,229.00 C316.27,229.00 277.86,172.79 278.20,172.59 C278.36,172.50 280.19,171.18 282.25,169.65 L 286.01 166.89 L 307.07 179.45 C318.65,186.35 328.29,192.00 328.50,192.00 C328.70,192.00 323.27,183.93 316.44,174.06 C309.60,164.20 304.00,155.76 304.01,155.31 C304.02,153.86 311.05,149.64 311.89,150.59 C312.33,151.09 321.10,163.81 331.39,178.86 C332.83,180.97 334.17,182.91 335.40,184.71 C346.34,200.68 349.34,205.05 348.19,207.35 C347.62,208.48 346.06,209.11 343.95,210.37 C341.47,211.83 340.82,211.53 321.15,199.82 C310.02,193.19 300.75,187.93 300.56,188.13 C300.37,188.33 305.57,196.27 312.11,205.76 C318.65,215.26 323.99,223.36 323.99,223.76 C323.98,224.17 322.41,225.51 320.50,226.75 ZM 877.26 352.83 C861.17,361.18 847.65,368.00 847.21,368.00 C846.76,368.00 845.43,366.01 844.25,363.58 L 842.11 359.17 L 856.55 340.55 C864.50,330.31 871.00,321.71 871.00,321.45 C871.00,321.18 862.75,325.25 852.66,330.48 C842.58,335.72 833.89,340.00 833.35,340.00 C832.55,340.00 829.00,333.92 829.00,332.55 C829.00,332.19 836.82,328.03 873.20,309.07 L 888.90 300.88 L 890.95 304.90 C892.08,307.11 892.99,309.28 892.98,309.71 C892.98,310.14 886.27,319.05 878.07,329.50 C869.88,339.95 863.31,348.63 863.47,348.79 C863.63,348.96 872.47,344.57 883.11,339.04 C893.76,333.52 902.58,329.00 902.71,329.00 C903.16,329.00 907.15,337.19 906.82,337.43 C906.64,337.56 893.34,344.49 877.26,352.83 ZM 643.65 143.00 C637.96,167.66 636.69,173.93 633.85,174.74 C632.90,175.01 631.77,174.66 630.23,174.19 C629.95,174.11 629.66,174.02 629.36,173.93 C628.72,173.74 628.22,173.63 627.77,173.39 C625.74,172.32 625.08,168.66 619.85,143.25 C618.01,134.31 616.25,127.00 615.94,127.00 C615.62,127.00 613.26,136.07 610.68,147.16 C608.11,158.26 605.88,167.46 605.72,167.61 C604.98,168.36 597.00,165.62 597.03,164.63 C597.15,160.76 611.85,100.55 612.75,100.25 C613.35,100.05 615.61,100.36 617.75,100.93 L 621.66 101.98 L 626.49 125.49 C629.14,138.42 631.58,149.00 631.91,148.99 C632.23,148.99 634.63,139.70 637.23,128.35 C639.84,116.99 642.10,107.57 642.27,107.40 C643.02,106.65 650.99,109.37 650.96,110.37 C650.93,110.99 647.64,125.68 643.65,143.00 ZM 384.52 190.13 C379.12,192.58 370.65,192.49 365.50,189.93 C351.54,182.97 339.21,159.41 341.51,144.06 C342.79,135.52 347.91,128.60 355.22,125.55 C359.54,123.75 369.16,123.50 372.32,125.12 C375.31,126.65 382.02,133.17 381.93,134.45 C381.89,135.03 380.32,136.78 378.43,138.34 L 375.01 141.19 L 371.93 138.59 C366.34,133.89 356.73,135.75 353.41,142.18 C349.66,149.43 354.65,165.94 363.25,174.74 C370.34,182.00 377.08,182.68 382.73,176.70 C387.88,171.26 388.35,169.60 386.00,165.01 L 383.95 160.99 L 379.01 163.49 C376.29,164.87 373.90,166.00 373.70,166.00 C373.08,166.00 368.64,156.03 369.08,155.60 C369.85,154.86 387.27,147.00 388.15,147.00 C388.62,147.00 391.51,152.29 394.57,158.75 C399.75,169.70 400.06,170.75 399.06,174.15 C397.63,178.98 389.57,187.83 384.52,190.13 ZM 689.81 190.35 C685.85,191.41 675.67,190.97 671.75,189.57 C658.53,184.86 653.11,171.51 657.53,154.54 C660.94,141.45 671.15,128.02 680.36,124.50 C687.34,121.83 696.73,122.73 702.22,126.59 C708.41,130.94 710.97,136.02 710.97,144.00 C710.97,152.64 710.61,153.09 704.74,151.75 L 700.00 150.66 L 700.00 145.85 C700.00,132.93 684.24,129.95 675.63,141.24 C671.80,146.27 667.24,156.63 666.50,162.00 C665.58,168.67 668.38,175.00 673.27,177.32 C676.90,179.04 683.63,179.54 685.61,178.23 C686.82,177.43 690.00,171.63 690.00,170.22 C690.00,169.74 687.78,168.30 685.06,167.03 L 680.11 164.71 L 682.57 159.86 C683.93,157.18 685.26,155.00 685.54,155.00 C687.08,155.00 704.00,164.18 704.00,165.03 C704.00,165.58 701.33,171.36 698.06,177.88 C693.60,186.77 691.54,189.89 689.81,190.35 ZM 816.67 255.72 C807.78,272.90 800.25,286.96 799.95,286.97 C799.65,286.99 797.75,285.31 795.73,283.24 L 792.06 279.48 L 795.53 273.22 C797.44,269.78 799.00,266.48 799.00,265.88 C799.00,264.24 786.86,252.00 785.24,252.00 C784.46,252.00 781.02,253.57 777.60,255.48 L 771.37 258.96 L 767.61 255.12 L 763.86 251.27 L 794.54 234.01 L 825.22 216.75 L 829.03 220.63 L 832.84 224.50 ZM 907.36 479.75 C889.83,487.04 874.94,493.00 874.25,493.00 C873.48,493.00 872.94,491.45 872.85,489.00 C872.77,486.80 872.66,484.52 872.60,483.93 C872.54,483.34 875.82,481.47 879.88,479.78 L 887.27 476.70 L 886.63 469.20 C886.29,465.07 886.00,460.48 886.00,458.99 C886.00,456.38 885.69,456.23 878.44,455.06 C870.21,453.73 869.00,452.54 869.00,445.81 C869.00,443.01 869.23,442.80 871.75,443.29 C873.26,443.58 888.67,446.40 906.00,449.56 C923.33,452.71 937.64,455.41 937.81,455.54 C937.98,455.68 938.37,458.20 938.67,461.14 L 939.21 466.50 ZM 438.73 170.14 C433.23,172.95 424.43,173.56 420.50,171.41 C416.05,168.97 412.06,164.97 409.91,160.79 C408.86,158.75 408.00,156.85 408.00,156.56 C408.00,155.95 416.10,151.71 416.39,152.18 C418.99,156.48 422.68,160.07 425.42,160.97 C428.35,161.94 429.45,161.81 432.81,160.10 C437.12,157.90 438.00,156.47 438.00,151.64 C438.00,145.54 436.20,144.38 425.59,143.68 C411.22,142.74 404.76,139.18 401.39,130.36 C399.23,124.70 399.88,116.38 402.80,112.28 C406.02,107.75 412.70,105.00 420.45,105.00 C426.29,105.00 427.28,105.31 430.52,108.16 C432.50,109.89 435.00,113.03 436.07,115.14 L 438.02 118.96 L 434.39 120.48 C429.44,122.55 428.84,122.44 425.81,119.00 C421.88,114.51 413.91,115.16 410.59,120.23 C407.10,125.54 412.00,130.00 421.31,130.00 C428.85,130.00 437.04,131.68 440.00,133.84 C443.57,136.44 447.99,145.09 448.67,150.82 C449.68,159.42 446.10,166.38 438.73,170.14 ZM 285.35 256.63 C280.77,258.54 278.26,258.34 272.50,255.60 C266.27,252.64 255.70,241.66 233.14,214.73 C231.80,213.14 231.94,212.67 234.52,209.98 C236.09,208.34 237.94,207.00 238.62,207.00 C239.31,207.00 246.93,215.15 255.56,225.11 C274.69,247.16 277.58,248.94 284.47,242.90 C287.15,240.54 288.00,239.01 288.00,236.54 C288.00,232.34 285.36,228.53 271.11,212.15 C264.73,204.80 258.42,197.45 257.11,195.81 L 254.71 192.82 L 258.26 189.27 L 261.81 185.72 L 264.77 189.11 C294.56,223.30 298.51,228.57 299.54,235.42 C300.72,243.30 294.31,252.88 285.35,256.63 ZM 411.09 569.93 C394.36,575.47 380.19,579.97 379.59,579.93 C378.99,579.89 389.52,574.36 403.00,567.63 C429.45,554.43 453.62,543.82 480.50,533.63 C489.85,530.09 498.85,526.61 500.50,525.90 C502.15,525.19 506.20,524.54 509.50,524.45 C513.67,524.34 519.62,522.90 529.00,519.74 C545.64,514.12 570.21,506.98 572.67,507.05 C573.68,507.08 565.72,510.15 555.00,513.87 C522.89,525.01 500.10,535.40 469.51,552.84 C458.02,559.38 455.17,560.63 453.60,559.78 C449.98,557.85 441.48,559.88 411.09,569.93 ZM 262.17 663.88 L 261.94 663.94 C256.68,665.24 254.93,665.68 253.79,665.03 C253.21,664.70 252.78,664.08 252.12,663.16 C248.72,658.34 240.34,640.73 234.50,626.10 L 228.74 611.69 L 232.81 603.10 C235.05,598.37 237.67,592.14 238.64,589.25 C239.60,586.36 240.64,584.01 240.95,584.03 C241.25,584.04 243.01,586.27 244.85,588.98 C250.48,597.30 262.87,608.33 271.11,612.39 C279.47,616.51 291.37,619.33 296.83,618.50 C299.75,618.06 299.25,618.42 294.42,620.28 C291.07,621.57 286.89,623.66 285.12,624.91 L 281.91 627.20 L 276.21 624.93 C262.57,619.52 258.65,616.93 248.13,606.34 C242.42,600.60 237.64,596.04 237.50,596.20 C237.11,596.66 242.37,611.99 246.63,622.80 C248.73,628.14 253.91,639.36 258.14,647.73 L 265.83 662.97 ZM 312.22 565.25 C309.06,572.37 305.75,571.35 301.65,562.00 C295.65,548.30 292.44,529.16 293.53,513.50 C294.39,501.06 296.22,495.11 300.52,490.69 C303.82,487.28 308.40,485.07 309.61,486.28 C310.56,487.23 312.77,498.37 314.03,508.56 C314.83,515.07 315.11,526.03 314.80,539.56 C314.39,558.07 314.09,561.05 312.22,565.25 ZM 450.37 913.75 C450.04,914.99 449.48,915.95 449.13,915.90 C445.70,915.34 429.74,911.17 418.25,907.84 C408.68,905.05 404.00,903.23 404.00,902.29 C404.00,899.46 417.28,837.47 418.07,836.60 C418.95,835.64 427.70,837.71 428.55,839.08 C428.82,839.52 426.75,852.09 423.94,867.01 C421.14,881.93 419.05,894.70 419.32,895.38 C419.58,896.07 426.82,898.40 435.40,900.55 L 451.00 904.48 L 450.99 907.99 C450.98,909.92 450.70,912.51 450.37,913.75 ZM 138.01 704.40 C142.43,713.14 145.92,720.40 145.77,720.52 C145.62,720.64 141.36,718.82 136.30,716.46 L 127.11 712.17 L 122.72 703.33 C120.31,698.48 116.83,690.90 114.98,686.50 C113.12,682.10 111.13,678.00 110.55,677.40 C109.97,676.79 105.90,675.49 101.50,674.50 C91.89,672.34 79.91,668.46 74.70,665.83 C70.79,663.85 61.91,651.86 63.87,651.21 C64.40,651.03 67.01,651.98 69.67,653.33 C79.45,658.27 102.55,663.97 112.93,664.01 C117.77,664.03 121.00,664.99 121.00,666.41 C121.00,667.05 121.89,669.32 122.97,671.45 C124.06,673.58 126.08,678.29 127.47,681.92 C128.85,685.54 133.60,695.66 138.01,704.40 ZM 823.39 303.68 C818.37,307.71 814.05,311.00 813.77,311.00 C813.50,311.00 812.03,309.21 810.51,307.01 L 807.75 303.03 L 810.12 301.07 C811.43,300.00 816.22,296.28 820.77,292.81 L 829.04 286.50 L 839.02 266.75 C844.52,255.89 849.34,247.01 849.75,247.02 C850.67,247.05 856.00,254.47 856.00,255.72 C856.00,256.22 853.31,261.77 850.02,268.06 C846.74,274.35 844.04,280.03 844.02,280.68 C844.01,281.46 848.28,280.70 856.75,278.44 C863.76,276.56 870.02,275.02 870.66,275.01 C871.30,275.01 873.22,276.89 874.92,279.21 C877.17,282.26 877.67,283.60 876.76,284.09 C876.07,284.46 866.95,286.67 856.50,289.00 C846.05,291.33 836.38,293.93 835.00,294.79 C833.62,295.65 828.40,299.65 823.39,303.68 ZM 477.91 147.72 C488.49,154.85 498.22,145.29 496.59,129.35 C494.73,111.11 487.25,101.81 476.92,104.91 C471.24,106.61 468.63,110.90 468.15,119.32 C467.43,132.04 471.29,143.25 477.91,147.72 ZM 257.55 286.32 C251.64,293.84 246.28,299.96 245.65,299.92 C245.02,299.88 233.93,291.30 221.00,280.87 C208.07,270.43 196.48,261.13 195.24,260.20 L 192.98 258.50 L 195.65 254.75 C197.12,252.69 198.75,251.00 199.28,251.00 C199.80,251.00 209.87,258.70 221.64,268.11 C237.45,280.75 243.36,284.94 244.27,284.17 C244.95,283.60 248.43,279.29 252.00,274.60 C255.57,269.90 258.95,266.06 259.50,266.05 C260.05,266.04 262.26,267.52 264.40,269.33 L 268.30 272.63 ZM 508.46 459.00 C506.15,459.00 502.79,459.29 501.01,459.65 C497.88,460.27 497.79,460.21 498.34,457.40 C498.66,455.80 499.37,447.98 499.92,440.00 C500.47,432.02 501.45,418.08 502.09,409.00 C503.10,394.73 503.05,392.01 501.74,388.91 L 500.23 385.32 L 505.09 384.07 C507.76,383.39 511.16,381.88 512.64,380.71 L 515.33 378.60 L 514.67 392.55 C514.31,400.22 513.71,418.31 513.34,432.75 L 512.68 459.00 ZM 873.56 436.88 C871.11,437.50 868.68,438.00 868.15,438.00 C867.63,438.00 865.99,432.71 864.51,426.25 C863.04,419.79 861.21,412.04 860.46,409.04 C859.70,406.04 859.18,403.48 859.31,403.36 C859.56,403.11 923.66,387.00 924.40,387.00 C924.64,387.00 925.14,388.46 925.50,390.25 C925.85,392.04 926.35,394.23 926.60,395.12 C926.98,396.48 922.64,397.85 900.03,403.49 C882.11,407.97 873.00,410.68 873.00,411.53 C873.00,412.24 874.12,417.58 875.50,423.40 C876.88,429.22 878.00,434.38 878.00,434.87 C878.00,435.36 876.00,436.27 873.56,436.88 ZM 670.88 411.42 C661.84,414.69 657.78,416.71 655.82,418.89 L 653.14 421.87 L 647.06 413.34 C641.08,404.96 641.00,404.77 642.74,402.57 C650.19,393.11 654.32,387.08 656.25,382.89 C657.48,380.20 658.78,378.00 659.14,378.00 C659.50,378.00 661.23,380.24 662.98,382.97 C667.69,390.31 677.01,398.44 685.15,402.30 L 692.28 405.69 L 687.77 406.31 C685.29,406.65 677.69,408.95 670.88,411.42 ZM 561.58 922.61 C561.54,922.67 558.67,923.00 555.21,923.35 C550.63,923.81 548.83,923.64 548.56,922.74 C548.23,921.66 545.93,861.33 545.98,855.25 C546.00,853.19 546.47,853.00 551.48,853.00 C556.36,853.00 557.01,853.25 557.41,855.25 C557.79,857.16 561.83,922.29 561.58,922.61 ZM 533.53 146.04 C533.85,146.57 536.98,147.00 540.48,147.00 C548.44,147.00 552.03,144.44 554.11,137.28 C556.18,130.15 555.94,112.37 553.73,108.28 C551.46,104.09 549.67,103.23 541.65,102.40 L 535.00 101.72 L 534.99 104.61 C534.99,106.20 534.53,115.96 533.96,126.29 C533.40,136.63 533.20,145.52 533.53,146.04 ZM 396.48 865.48 C392.30,883.07 388.78,897.55 388.66,897.67 C388.43,897.90 377.02,893.35 376.48,892.82 C376.12,892.45 393.00,827.76 393.65,827.05 C393.88,826.81 396.53,827.45 399.54,828.47 C403.62,829.86 404.91,830.74 404.56,831.92 C404.30,832.79 400.67,847.89 396.48,865.48 ZM 471.99 919.25 C471.99,919.28 471.99,919.31 471.99,919.34 C472.00,919.50 472.00,919.62 471.95,919.70 C471.75,920.01 470.78,919.83 466.24,918.97 L 465.50 918.83 C462.75,918.31 460.16,917.55 459.75,917.14 C458.93,916.33 465.93,849.96 466.96,848.74 C467.62,847.98 476.63,849.30 477.63,850.30 C477.93,850.60 476.78,866.07 475.08,884.67 C473.38,903.28 471.99,918.84 471.99,919.25 ZM 455.00 499.76 C443.38,505.06 441.08,505.93 440.64,505.19 C440.42,504.81 440.83,496.17 441.56,486.00 C442.30,475.83 442.92,466.09 442.95,464.37 C443.00,461.51 443.39,461.14 447.44,460.12 C449.89,459.50 452.08,459.00 452.31,459.00 C452.55,459.00 452.98,460.82 453.28,463.04 C454.35,471.06 460.41,475.78 467.99,474.50 L 471.73 473.87 L 468.33 483.62 C466.46,488.98 464.39,494.04 463.72,494.85 C463.05,495.66 459.12,497.87 455.00,499.76 ZM 454.68 407.28 C453.41,408.86 447.63,410.30 446.62,409.29 C446.29,408.95 446.24,405.04 446.52,400.59 C447.32,387.74 447.90,374.97 447.95,368.88 L 448.00 363.26 L 451.75 362.68 C453.81,362.36 458.27,361.80 461.66,361.43 L 467.82 360.76 L 468.48 367.63 C468.85,371.41 469.79,376.82 470.57,379.65 L 470.63 379.87 C471.78,384.00 472.15,385.35 471.68,385.79 C471.45,386.00 471.02,386.00 470.38,386.00 L 470.32 386.00 C469.39,386.00 466.73,386.92 464.41,388.05 C459.87,390.24 457.87,393.71 456.55,401.66 C456.17,403.94 455.33,406.48 454.68,407.28 ZM 889.80 378.64 C874.79,383.82 860.83,388.71 858.79,389.50 C854.74,391.09 854.62,391.01 852.56,385.16 L 851.16 381.21 L 882.33 370.45 C899.47,364.53 914.00,359.51 914.61,359.29 C915.78,358.87 918.68,367.65 917.69,368.64 C917.37,368.97 904.82,373.47 889.80,378.64 ZM 314.36 732.97 C311.14,733.60 307.88,734.33 307.12,734.58 C305.74,735.04 303.44,732.82 291.53,719.50 C282.30,709.19 270.81,693.78 271.71,692.94 C272.15,692.54 274.98,691.69 278.00,691.04 L 283.50 689.87 L 286.50 693.62 C288.15,695.67 292.80,701.36 296.82,706.24 C300.85,711.13 304.61,716.46 305.18,718.10 C305.82,719.94 307.61,721.79 309.86,722.95 C311.86,723.98 315.01,726.40 316.86,728.32 L 320.21 731.81 ZM 725.91 435.54 C722.49,437.32 715.36,437.42 712.11,435.74 C710.33,434.81 708.64,431.64 705.48,423.22 C703.15,417.01 700.45,411.05 699.47,409.97 L 699.42 409.91 C698.63,409.04 698.13,408.49 698.25,408.27 C698.45,407.90 700.57,408.59 706.40,410.50 L 706.62 410.57 C717.97,414.27 727.24,418.04 729.19,419.73 C733.46,423.45 731.56,432.63 725.91,435.54 ZM 505.66 884.27 C513.26,885.05 515.75,884.98 518.88,883.89 C524.85,881.81 526.91,873.34 522.66,868.39 C520.57,865.96 519.41,865.60 511.91,865.01 C507.28,864.64 503.27,864.53 503.00,864.75 C502.73,864.98 502.35,869.37 502.16,874.52 L 501.81 883.87 ZM 351.54 839.49 C359.79,843.64 362.26,843.83 365.55,840.55 C368.88,837.21 368.91,831.23 365.61,827.33 C363.01,824.24 350.53,817.14 349.51,818.16 C348.08,819.59 343.10,834.50 343.81,835.21 C344.24,835.64 347.72,837.56 351.54,839.49 ZM 590.66 382.70 C584.93,391.18 584.59,390.43 585.33,370.89 C585.70,361.32 586.00,349.98 586.00,345.68 C586.00,338.95 586.23,337.90 587.64,338.18 C593.85,339.40 597.93,358.90 594.91,372.97 C594.32,375.75 592.40,380.14 590.66,382.70 ZM 653.45 867.75 C653.12,872.15 653.30,875.00 653.89,875.00 C654.84,875.00 671.18,869.15 671.71,868.62 C671.86,868.48 668.72,863.36 664.74,857.24 C660.76,851.13 656.99,845.31 656.37,844.32 C655.47,842.85 655.12,844.25 654.61,851.50 C654.26,856.45 653.74,863.76 653.45,867.75 ZM 730.13 328.00 C733.54,340.65 733.58,341.00 731.57,340.93 C727.65,340.80 719.99,338.30 718.00,336.50 C714.03,332.91 716.03,320.20 721.12,316.63 C725.77,313.37 726.39,314.15 730.13,328.00 ZM 598.26 501.00 C594.28,502.10 590.75,503.00 590.41,503.00 C590.07,503.00 591.16,501.44 592.83,499.54 C594.95,497.12 596.04,494.64 596.46,491.29 C596.79,488.66 597.38,484.25 597.79,481.50 L 598.53 476.50 L 602.53 482.50 C604.81,485.91 608.56,489.86 611.23,491.65 L 615.92 494.80 L 610.71 496.90 C607.85,498.06 602.24,499.91 598.26,501.00 ZM 898.67 471.22 C898.90,471.62 901.42,471.01 904.29,469.87 C907.16,468.74 911.97,466.90 915.00,465.78 C918.03,464.67 920.85,463.44 921.27,463.05 C921.70,462.67 917.42,461.56 911.77,460.60 C906.12,459.63 900.46,458.59 899.19,458.29 C896.90,457.76 896.88,457.83 897.57,464.13 C897.95,467.63 898.45,470.82 898.67,471.22 ZM 800.51 250.01 L 805.39 254.97 L 811.13 244.25 C814.29,238.36 816.71,233.38 816.52,233.19 C816.24,232.90 797.68,243.33 796.06,244.68 C795.82,244.88 797.82,247.28 800.51,250.01 ZM 350.00 594.30 C340.22,600.78 340.01,600.78 346.52,594.40 C349.83,591.16 354.76,585.23 357.46,581.23 L 362.39 573.95 L 364.44 576.38 C367.04,579.44 370.08,580.98 373.68,581.06 C375.69,581.10 374.28,581.91 368.83,583.88 C364.61,585.41 360.11,587.40 358.83,588.32 C357.55,589.24 353.58,591.93 350.00,594.30 ZM 587.41 455.65 C589.41,459.85 590.92,463.38 590.77,463.48 C590.62,463.58 588.81,463.25 586.75,462.73 L 583.00 461.80 L 583.00 454.90 C583.00,451.11 583.18,448.00 583.39,448.00 C583.60,448.00 585.41,451.44 587.41,455.65 Z" fill="rgb(2,2,2)"/>
<path d="M 285.00 759.55 C272.28,761.08 217.18,762.49 211.00,761.43 C209.62,761.20 204.45,760.50 199.50,759.88 C171.77,756.43 132.16,741.99 108.00,726.53 C75.64,705.82 50.95,676.91 37.62,644.10 C34.78,637.12 33.35,631.00 34.55,631.00 C34.98,631.00 38.07,633.63 41.42,636.84 C44.76,640.05 47.99,642.86 48.59,643.09 C49.20,643.31 51.87,647.74 54.53,652.91 C76.33,695.29 124.56,728.24 184.00,741.36 C232.60,752.08 274.81,751.09 327.00,738.00 C355.47,730.86 375.53,723.80 420.14,705.20 C432.04,700.24 447.34,694.37 454.14,692.16 C496.53,678.37 623.70,651.25 673.00,645.48 L 678.50 644.84 L 682.96 651.17 C685.41,654.65 689.16,659.39 691.28,661.69 L 695.15 665.88 L 691.82 666.44 C690.00,666.75 681.97,667.70 674.00,668.57 C615.46,674.90 529.39,689.64 484.50,701.03 C477.85,702.72 485.42,701.87 493.17,700.05 C497.75,698.98 503.52,697.84 506.00,697.51 C508.48,697.18 512.97,696.50 516.00,696.00 C519.03,695.49 523.75,694.84 526.50,694.53 C529.25,694.23 533.53,693.33 536.00,692.53 C540.91,690.94 543.02,690.52 551.30,689.48 C556.53,688.83 557.16,689.00 563.87,692.99 C574.80,699.49 584.55,702.28 596.00,702.19 C601.22,702.15 606.99,701.67 608.80,701.11 C613.36,699.73 613.78,701.42 610.80,709.22 L 608.41 715.50 L 598.45 715.83 C580.93,716.40 569.15,713.33 556.55,704.91 C552.52,702.21 548.25,700.00 547.08,700.00 C545.90,700.00 542.37,701.30 539.22,702.89 C528.73,708.18 519.56,710.42 508.50,710.39 C499.66,710.38 497.52,710.00 490.02,707.13 C485.36,705.34 481.28,703.46 480.96,702.94 C480.39,702.02 452.38,709.09 435.00,714.54 C430.33,716.00 415.48,721.39 402.00,726.51 C378.99,735.24 348.31,745.70 329.00,751.39 C318.51,754.48 302.75,757.41 285.00,759.55 ZM 243.00 687.98 C206.52,691.16 161.06,683.32 133.02,669.01 C129.11,667.02 128.88,666.69 130.33,665.24 C131.45,664.12 134.44,663.51 140.30,663.21 C148.07,662.80 149.30,663.02 157.58,666.32 C176.92,674.01 191.89,676.52 218.00,676.44 C252.08,676.33 278.16,670.33 313.73,654.41 C339.62,642.82 359.63,631.30 412.25,597.70 C457.41,568.86 480.14,555.42 503.69,543.64 C545.81,522.56 601.95,505.67 661.70,496.07 C676.31,493.73 709.15,489.82 709.70,490.36 C709.89,490.55 708.18,491.94 705.91,493.44 C703.64,494.94 698.06,499.96 693.50,504.59 C688.81,509.35 684.38,513.00 683.30,513.00 C678.78,513.00 642.92,519.40 624.50,523.50 C561.11,537.60 513.09,555.56 465.96,582.79 C451.39,591.20 424.46,608.00 398.00,625.18 C365.76,646.11 333.11,663.98 312.70,671.84 C290.51,680.39 266.61,685.92 243.00,687.98 ZM 710.15 653.25 C707.08,656.41 704.02,659.00 703.35,659.00 C701.56,659.00 690.05,644.21 685.07,635.51 C679.96,626.58 675.30,613.58 673.42,603.05 C671.61,592.92 671.66,575.04 673.51,565.25 C682.23,519.32 720.56,484.17 766.10,480.37 L 774.00 479.71 L 774.00 484.86 C774.00,488.54 773.61,490.00 772.63,490.00 C771.88,490.00 767.98,491.65 763.96,493.66 C754.04,498.62 745.31,507.43 740.66,517.14 C733.22,532.71 731.94,542.15 731.14,587.50 L 730.46 625.50 L 727.74 630.70 C724.56,636.77 718.03,645.14 710.15,653.25 ZM 323.07 713.48 C314.97,716.23 313.41,716.47 312.55,715.08 C311.62,713.57 319.46,708.90 338.41,699.67 C360.17,689.07 369.99,683.52 410.00,659.25 C475.99,619.21 512.98,603.00 578.50,585.41 C594.94,581.00 611.36,577.34 621.00,575.94 C625.12,575.34 630.08,574.46 632.00,573.99 C637.10,572.75 651.75,570.18 657.25,569.57 L 662.00 569.04 L 662.00 589.77 L 657.25 590.41 C650.54,591.30 641.43,592.77 635.00,594.00 C631.97,594.58 625.22,595.72 620.00,596.55 C614.78,597.37 609.38,598.46 608.00,598.98 C606.62,599.49 604.15,600.11 602.50,600.36 C597.32,601.14 579.72,604.97 574.50,606.46 C571.75,607.24 567.70,608.35 565.50,608.92 C540.13,615.50 501.51,629.67 471.50,643.41 C463.61,647.03 458.19,649.74 398.00,680.13 C364.57,697.02 354.07,701.95 343.50,705.72 C339.65,707.09 335.15,708.83 333.50,709.59 C331.85,710.35 327.16,712.10 323.07,713.48 ZM 369.88 667.83 C365.42,670.51 365.00,670.52 365.00,667.95 C365.00,664.90 371.40,659.39 393.18,643.69 C436.44,612.49 454.51,601.36 489.00,584.65 C514.89,572.11 552.83,557.94 580.50,550.49 C585.45,549.16 591.97,547.37 595.00,546.52 C600.34,545.02 619.99,540.57 625.69,539.57 C627.23,539.30 634.80,537.94 642.50,536.55 C661.80,533.06 673.44,531.20 673.83,531.54 C674.01,531.70 673.59,532.88 672.89,534.16 C672.20,535.45 670.46,539.64 669.03,543.49 L 666.44 550.48 L 654.97 552.20 C631.00,555.81 614.89,559.26 585.50,567.10 C563.96,572.85 512.84,589.40 502.50,593.98 C501.40,594.46 496.00,596.77 490.50,599.11 C472.15,606.90 424.99,631.81 413.00,640.04 C405.35,645.29 389.81,655.00 389.05,655.00 C388.56,655.00 388.02,655.34 387.83,655.75 C387.51,656.49 377.00,663.56 369.88,667.83 ZM 444.21 682.13 C438.48,684.58 430.54,685.69 429.60,684.16 C428.63,682.60 434.51,679.17 453.68,670.13 C483.01,656.30 523.50,641.19 558.50,631.02 C567.96,628.27 609.32,618.06 624.50,614.74 C636.75,612.05 662.94,607.60 663.46,608.12 C664.05,608.71 669.00,625.59 669.00,627.02 C669.00,627.56 667.69,628.00 666.09,628.00 C664.49,628.00 657.18,628.91 649.84,630.02 C642.50,631.13 633.35,632.50 629.50,633.05 C625.65,633.61 620.25,634.50 617.50,635.03 C614.75,635.56 608.90,636.65 604.50,637.45 C583.91,641.20 585.42,640.88 546.50,650.02 C523.87,655.34 459.70,675.48 444.21,682.13 ZM 310.71 648.92 C304.46,651.17 294.08,651.63 290.35,649.82 C286.97,648.19 284.60,642.93 285.38,638.77 C286.46,633.01 290.01,630.45 302.35,626.52 C324.36,619.51 340.41,611.53 358.50,598.59 C362.87,595.47 368.50,592.58 373.50,590.91 C418.23,575.96 446.12,567.00 447.95,567.00 C449.26,567.00 450.01,567.51 449.79,568.25 C449.22,570.17 400.96,602.20 374.00,618.55 C355.69,629.66 330.03,641.97 310.71,648.92 ZM 513.50 772.54 C502.22,774.32 487.30,774.27 479.64,772.42 C472.34,770.65 462.47,765.50 454.00,759.03 C450.42,756.30 446.47,754.06 445.20,754.04 C443.94,754.02 440.56,755.48 437.70,757.30 C421.30,767.69 408.81,768.98 387.52,762.50 C375.29,758.78 355.76,750.79 355.27,749.31 C354.85,748.06 358.12,746.32 366.05,743.55 C372.36,741.35 373.51,741.21 375.85,742.39 C381.43,745.21 391.83,748.28 399.89,749.50 C412.98,751.48 425.31,749.39 438.48,742.95 C442.93,740.78 447.41,739.00 448.44,739.00 C449.46,739.00 453.90,741.31 458.29,744.13 C475.24,755.00 489.60,759.58 506.00,759.36 C515.20,759.23 517.51,758.82 524.70,756.04 C529.21,754.29 535.64,751.09 538.99,748.93 C542.33,746.77 545.39,745.02 545.78,745.04 C546.18,745.07 548.93,747.26 551.90,749.93 C555.56,753.21 557.11,755.27 556.70,756.34 C555.87,758.50 539.13,766.44 530.00,769.01 C525.88,770.17 518.45,771.76 513.50,772.54 ZM 582.87 741.91 C580.05,744.16 576.79,745.99 575.62,745.99 C572.52,745.97 559.53,740.05 551.70,735.07 L 544.89 730.75 L 538.20 733.77 C509.28,746.82 483.58,744.29 452.97,725.40 L 447.40 721.96 L 437.95 726.76 C427.26,732.19 420.66,734.00 411.54,734.00 C405.58,734.00 405.21,733.86 404.75,731.46 L 404.73 731.37 C404.62,730.79 404.53,730.33 404.62,729.91 C404.96,728.29 407.90,727.23 422.02,722.04 C433.94,717.65 455.32,711.00 457.50,711.00 C458.27,711.00 461.50,712.53 464.70,714.40 C478.42,722.44 496.44,728.00 508.80,728.00 C517.95,728.00 529.39,724.60 539.13,718.98 C543.87,716.24 547.97,714.00 548.23,714.00 C548.48,714.00 552.43,716.50 557.00,719.56 C561.56,722.61 570.41,727.56 576.65,730.55 C582.89,733.54 588.00,736.40 588.00,736.91 C588.00,737.42 585.69,739.67 582.87,741.91 ZM 378.41 435.99 C378.30,438.42 378.19,440.63 378.11,442.50 C377.64,453.11 377.14,457.49 376.63,455.50 C373.86,444.64 364.25,429.65 357.15,425.10 C362.58,428.58 369.13,437.45 373.94,447.82 C375.45,451.08 376.63,452.59 377.04,451.79 C377.32,451.24 377.87,444.68 378.41,435.99 ZM 578.50 506.00 C578.16,506.55 577.46,507.00 576.94,507.00 C576.42,507.00 576.00,506.55 576.00,506.00 C576.00,505.45 576.70,505.00 577.56,505.00 C578.42,505.00 578.84,505.45 578.50,506.00 ZM 380.07 403.13 C380.32,397.56 380.53,392.47 380.68,388.75 L 380.97 381.07 C380.86,385.71 380.51,394.48 380.07,403.13 Z" fill="rgb(22,35,115)"/>
<path d="M 146.50 651.57 C138.65,653.12 114.41,654.27 108.50,653.38 C95.33,651.39 83.58,648.40 77.06,645.39 C59.27,637.17 47.74,626.50 40.45,611.50 C34.82,599.93 33.03,592.08 33.01,578.88 C32.99,561.24 38.26,544.40 48.69,528.79 C54.74,519.74 68.83,504.90 77.99,497.93 C81.85,495.01 85.00,492.31 85.00,491.95 C85.00,491.59 81.80,487.97 77.88,483.90 C65.81,471.35 57.18,456.72 52.86,441.50 C51.01,434.97 50.60,431.11 50.64,420.50 C50.71,401.48 54.53,389.20 65.62,372.36 C83.20,345.66 104.39,334.34 140.50,332.34 C164.65,331.01 189.59,337.54 203.68,348.88 C206.53,351.18 211.00,356.31 213.63,360.28 C233.16,389.82 231.99,420.88 210.24,449.80 C205.45,456.17 199.07,462.49 188.60,471.23 L 185.70 473.65 L 190.57 477.58 C205.05,489.25 217.38,503.18 223.24,514.50 C225.29,518.45 225.96,521.49 226.42,529.02 C227.02,538.77 228.82,549.65 231.59,560.37 C233.41,567.38 232.98,571.76 229.30,583.50 C224.66,598.30 218.67,608.33 208.04,619.07 C202.79,624.37 195.80,630.52 192.50,632.72 C179.17,641.63 162.72,648.37 146.50,651.57 ZM 525.36 507.59 C510.60,512.54 509.67,512.71 510.35,510.25 C510.62,509.29 511.64,505.08 512.64,500.89 C514.39,493.50 514.57,493.22 518.97,490.89 L 523.50 488.50 L 524.15 471.50 C524.50,462.15 525.31,437.62 525.95,417.00 C526.59,396.38 527.49,371.27 527.95,361.20 C528.41,351.14 528.55,341.98 528.25,340.85 C527.76,338.96 527.22,338.85 521.36,339.48 L 515.00 340.16 L 515.00 327.14 C515.00,319.98 515.34,313.91 515.75,313.66 C516.16,313.40 536.08,309.26 560.00,304.45 C603.48,295.71 603.50,295.71 611.64,296.79 C630.75,299.35 643.44,309.77 649.63,328.00 C651.94,334.80 652.21,354.61 650.11,363.00 C646.86,376.00 640.56,386.59 629.15,398.24 C624.64,402.85 621.96,406.31 622.54,406.80 C623.07,407.26 625.86,409.55 628.75,411.90 C634.55,416.63 641.61,426.80 650.47,443.18 C654.70,451.02 656.97,454.16 658.97,454.99 C662.08,456.28 666.91,455.39 667.68,453.39 C667.96,452.65 667.29,446.52 666.18,439.77 C665.08,433.02 664.47,427.21 664.84,426.85 C666.52,425.20 689.13,417.74 689.90,418.58 C690.94,419.71 696.83,435.20 698.01,439.92 C698.48,441.81 699.68,443.83 700.68,444.42 C711.55,450.86 728.16,450.47 735.85,443.60 C740.79,439.17 743.41,433.10 743.41,426.05 C743.41,412.46 738.45,408.26 712.00,399.51 C685.92,390.89 677.77,385.26 670.60,370.93 C665.90,361.53 664.64,354.68 665.27,342.00 C667.06,306.37 692.13,278.32 725.57,274.53 C735.68,273.39 755.04,276.93 757.97,280.46 C759.61,282.44 765.63,328.77 764.41,329.99 C763.05,331.35 746.80,336.14 745.39,335.60 C744.76,335.35 742.73,328.98 740.87,321.43 C737.65,308.32 737.34,307.59 733.98,305.37 C726.22,300.23 718.15,301.45 710.98,308.85 C706.22,313.77 704.59,317.71 703.48,327.06 C702.15,338.20 706.78,346.28 716.60,349.95 C719.61,351.08 722.86,352.00 723.83,352.00 C727.36,352.00 743.69,357.94 750.40,361.67 C762.19,368.21 772.23,379.91 776.54,392.11 C781.89,407.29 783.25,433.62 779.23,444.43 C774.76,456.45 768.25,462.73 754.81,467.98 C741.89,473.02 730.22,474.38 698.00,474.58 C682.33,474.68 668.15,475.02 666.50,475.35 C655.98,477.41 625.29,482.00 622.06,482.00 C618.73,482.00 617.72,481.44 615.05,478.07 C607.09,468.01 604.03,462.53 593.63,439.72 C589.54,430.74 586.40,428.47 579.22,429.28 C571.31,430.17 571.15,430.64 570.81,454.00 L 570.50 474.50 L 577.75 474.79 L 585.00 475.09 L 585.00 480.98 C585.00,490.13 584.17,491.43 577.34,492.89 C566.89,495.13 538.81,503.07 525.36,507.59 ZM 304.89 606.47 C293.13,609.24 285.18,608.23 274.05,602.55 C262.29,596.54 248.48,579.44 243.56,564.77 C237.72,547.38 236.68,539.55 236.64,513.00 C236.60,487.04 237.51,477.71 242.62,452.00 C251.94,405.02 270.19,366.19 289.29,352.64 C297.96,346.49 308.40,341.46 317.64,338.97 C328.09,336.16 357.84,334.89 359.73,337.18 C360.39,337.97 361.62,342.88 362.46,348.07 C364.30,359.53 366.32,391.13 365.26,392.02 C363.99,393.09 339.82,402.15 339.39,401.72 C339.17,401.50 338.52,397.53 337.94,392.91 C335.76,375.26 333.15,369.50 326.24,367.06 C322.56,365.76 321.79,365.79 318.16,367.43 C312.97,369.77 310.01,372.99 305.65,381.00 C300.55,390.38 296.34,401.42 292.98,414.25 C290.01,425.57 286.34,448.67 287.35,449.68 C287.65,449.98 291.63,447.23 296.20,443.57 C305.87,435.81 315.62,430.64 323.72,428.96 C354.35,422.60 372.37,449.28 370.70,498.50 C369.66,528.90 361.86,555.58 347.93,576.42 C339.29,589.33 319.77,602.96 304.89,606.47 ZM 571.61 811.99 C559.55,813.53 550.91,813.96 534.21,813.83 C509.25,813.64 509.29,813.64 490.00,810.93 C458.95,806.57 425.40,795.96 398.07,781.85 C388.02,776.66 386.58,774.67 393.67,775.76 C396.33,776.17 403.45,776.47 409.50,776.43 C418.84,776.36 421.50,775.96 427.12,773.77 C430.77,772.35 435.59,770.02 437.85,768.59 C440.11,767.17 442.48,766.00 443.11,766.00 C443.74,766.00 446.34,767.48 448.88,769.30 C466.90,782.18 482.27,786.23 504.50,783.98 C520.81,782.33 544.61,776.19 549.00,772.50 C549.83,771.81 552.08,770.45 554.00,769.48 C560.12,766.41 564.94,761.99 565.81,758.67 L 566.63 755.50 L 573.15 755.83 C579.62,756.16 579.73,756.12 586.09,751.25 C596.97,742.91 599.21,737.54 594.61,730.76 L 592.22 727.24 L 602.05 726.54 C607.51,726.16 612.31,725.33 612.85,724.67 C615.12,721.93 622.00,704.64 622.00,701.68 C622.00,697.71 619.86,694.50 615.83,692.41 C613.16,691.03 611.54,690.99 602.61,692.08 C592.89,693.27 585.69,692.79 587.61,691.10 C588.10,690.66 598.53,689.09 610.79,687.61 C623.05,686.13 634.08,684.53 635.29,684.06 C636.51,683.59 641.55,682.72 646.50,682.14 C651.45,681.55 659.78,680.57 665.00,679.96 C682.95,677.86 695.51,675.94 698.63,674.81 C701.56,673.76 702.42,674.09 712.71,680.37 C729.63,690.68 745.91,696.66 762.00,698.48 C770.77,699.48 773.00,700.07 773.00,701.43 C773.00,703.39 751.29,726.50 740.83,735.68 C692.71,777.91 635.26,803.81 571.61,811.99 ZM 436.00 540.27 C428.02,543.67 410.56,551.88 397.19,558.53 C383.82,565.18 372.65,570.24 372.36,569.77 C372.07,569.31 371.42,566.00 370.92,562.41 C369.70,553.84 371.77,546.75 375.99,545.00 C382.21,542.43 383.31,540.02 384.14,527.23 C384.96,514.65 388.29,445.86 389.98,406.50 C390.54,393.30 391.26,377.91 391.57,372.29 L 392.13 362.09 L 376.50 361.50 L 376.50 335.50 L 382.50 334.39 C385.80,333.77 391.65,332.75 395.50,332.11 C399.35,331.47 413.08,329.14 426.00,326.92 C438.92,324.70 453.33,322.26 458.00,321.50 C462.67,320.73 471.90,319.18 478.50,318.05 C490.91,315.92 503.96,314.42 504.06,315.11 C504.78,320.15 506.66,371.72 506.14,372.25 C505.73,372.66 500.10,374.66 493.63,376.69 C484.59,379.53 481.67,380.09 481.08,379.13 C480.65,378.44 479.75,373.96 479.07,369.19 C477.32,356.97 476.22,353.19 474.03,352.02 C471.55,350.69 464.27,350.73 450.29,352.15 C440.04,353.19 438.92,353.50 438.55,355.40 C438.11,357.64 436.27,391.35 435.61,409.32 C435.29,417.91 435.49,420.25 436.60,420.68 C438.53,421.42 454.81,419.05 458.68,417.46 C462.53,415.88 464.41,412.51 466.04,404.20 C466.82,400.22 467.91,397.59 469.00,397.00 C470.83,396.02 488.40,392.00 490.85,392.00 L 490.87 392.00 C491.04,392.00 491.19,392.00 491.32,392.05 C492.38,392.46 492.15,396.26 489.98,431.52 L 489.95 432.00 C488.28,459.21 489.33,456.80 477.46,460.69 C464.00,465.11 463.69,465.04 462.71,457.05 C461.74,449.25 460.83,447.99 456.13,448.03 C450.17,448.08 433.53,452.49 433.28,454.08 C432.60,458.35 430.00,500.21 430.00,506.86 C430.00,515.36 431.39,518.00 435.88,518.00 C437.10,518.00 444.68,515.20 452.73,511.77 C471.20,503.90 472.44,502.70 477.49,487.76 C483.26,470.73 482.86,471.26 490.23,470.62 C508.81,469.00 509.00,469.01 509.01,471.34 C509.01,472.53 506.71,482.87 503.89,494.32 C498.02,518.17 500.46,515.00 483.00,521.41 C470.45,526.02 453.81,532.70 436.00,540.27 ZM 802.50 685.59 C794.72,687.60 789.50,688.25 779.00,688.51 C771.58,688.68 764.15,688.62 762.50,688.36 C754.21,687.05 742.64,683.79 735.25,680.67 C726.70,677.06 709.67,666.41 710.20,665.00 C710.59,663.95 719.94,654.00 720.54,654.00 C720.79,654.00 723.16,655.55 725.80,657.45 C732.07,661.96 745.93,668.52 753.50,670.57 C762.62,673.05 779.06,673.54 787.39,671.58 C804.21,667.63 819.13,655.51 827.33,639.12 C832.76,628.27 834.37,621.19 833.81,610.53 C833.31,601.11 830.63,594.71 824.65,588.68 C820.44,584.43 812.63,580.46 806.75,579.57 C804.69,579.26 801.45,578.76 799.55,578.46 L 796.11 577.93 L 802.58 571.46 C813.93,560.11 821.91,545.59 824.00,532.48 C827.20,512.44 814.92,497.20 790.63,491.04 L 783.50 489.24 L 783.19 484.52 L 782.88 479.80 L 788.19 480.48 C834.74,486.49 870.84,521.11 879.02,567.60 C880.80,577.73 879.81,600.27 877.15,610.24 C867.18,647.61 838.88,676.17 802.50,685.59 ZM 123.86 613.43 C149.05,621.19 169.20,600.11 167.78,567.50 C167.45,559.86 166.89,557.47 164.11,551.68 C158.03,539.03 144.31,526.68 126.26,517.63 L 117.03 512.99 L 114.34 517.25 C100.98,538.38 95.54,558.28 97.87,577.39 C100.20,596.39 109.24,608.93 123.86,613.43 ZM 839.83 478.75 C840.34,484.99 840.24,487.98 839.54,487.94 C838.97,487.90 834.90,485.83 830.50,483.34 C820.02,477.40 809.81,473.50 798.09,470.96 C792.85,469.83 788.43,468.76 788.26,468.60 C788.10,468.43 790.01,464.29 792.52,459.40 C798.94,446.87 800.33,439.27 799.65,420.50 C798.90,400.07 796.55,389.40 789.82,376.00 C785.55,367.51 783.06,363.99 776.77,357.59 C772.49,353.24 769.24,349.42 769.56,349.09 C769.88,348.77 773.60,347.34 777.82,345.92 L 785.50 343.34 L 786.50 330.50 L 789.00 333.97 C790.38,335.88 793.64,341.05 796.25,345.47 C821.15,387.60 836.14,433.43 839.83,478.75 ZM 142.82 450.74 C147.04,453.07 151.03,454.98 151.68,454.99 C154.63,455.02 164.13,437.18 167.58,425.13 C169.88,417.07 170.19,414.47 169.77,406.63 C169.49,401.59 168.30,394.27 167.11,390.29 C163.10,376.96 154.69,370.04 142.50,370.04 C124.93,370.04 110.93,386.35 110.77,407.00 C110.64,424.66 120.89,438.64 142.82,450.74 ZM 305.48 580.00 C312.74,581.56 319.82,576.04 322.39,566.82 C325.14,556.92 326.38,534.78 325.08,518.65 C323.73,501.93 321.07,486.98 318.60,482.20 C316.67,478.46 311.64,475.01 308.11,475.00 C304.68,475.00 297.16,478.95 293.30,482.78 C285.91,490.14 283.00,500.67 283.00,520.08 C283.01,538.24 286.73,555.55 293.55,569.09 C296.97,575.88 300.23,578.87 305.48,580.00 ZM 572.55 377.39 L 571.85 406.29 L 575.18 405.73 C595.63,402.35 608.00,386.05 608.00,362.50 C608.00,346.44 602.64,332.03 595.02,327.58 C590.80,325.11 581.84,324.82 577.50,327.01 C574.54,328.50 574.49,328.66 573.87,338.51 C573.52,344.00 572.93,361.50 572.55,377.39 ZM 778.32 833.62 C776.57,834.93 774.95,836.00 774.73,836.00 C772.84,836.00 773.16,831.58 775.73,822.00 C776.54,818.97 777.44,815.46 777.73,814.20 C778.16,812.32 776.57,810.21 769.09,802.71 C764.05,797.66 760.28,793.44 760.71,793.33 C761.14,793.23 766.83,792.84 773.34,792.47 C784.98,791.80 785.19,791.75 786.11,789.15 C788.50,782.38 793.61,771.62 794.58,771.30 C795.88,770.88 797.49,774.05 801.01,783.95 C804.07,792.54 803.91,792.45 818.08,793.56 C823.01,793.95 827.26,794.61 827.52,795.04 C827.97,795.76 820.35,803.51 813.59,809.21 L 810.68 811.67 L 812.27 821.08 C813.14,826.26 814.17,831.74 814.55,833.25 C815.44,836.84 813.27,836.94 809.18,833.50 C807.55,832.12 805.89,831.00 805.49,831.00 C805.09,831.00 802.54,829.37 799.82,827.37 C797.52,825.68 796.33,824.69 795.04,824.52 C793.43,824.30 791.65,825.34 787.34,827.85 C786.92,828.10 786.47,828.36 786.00,828.63 C783.53,830.07 780.07,832.32 778.32,833.62 ZM 293.96 825.05 C295.19,830.97 295.72,835.68 295.21,836.19 C294.70,836.70 292.25,835.58 289.41,833.54 C286.71,831.59 283.60,829.60 282.50,829.11 C281.40,828.63 279.64,827.28 278.60,826.11 C276.16,823.42 274.70,823.45 271.65,826.27 C270.30,827.52 267.18,829.56 264.71,830.79 C262.24,832.02 259.66,833.70 258.99,834.52 C257.48,836.33 255.11,836.45 254.46,834.75 C254.20,834.06 254.69,831.03 255.55,828.00 C256.41,824.97 257.24,821.83 257.41,821.00 C257.57,820.17 258.06,817.74 258.49,815.59 L 259.28 811.69 L 250.96 804.03 C240.05,793.97 240.30,793.00 253.75,793.00 C264.11,793.00 268.00,791.68 268.00,788.17 C268.00,787.22 268.63,785.54 269.40,784.44 C270.17,783.34 271.30,780.65 271.91,778.47 C272.52,776.29 273.88,773.38 274.94,772.01 C276.80,769.61 276.90,769.59 277.56,771.51 C277.94,772.60 279.93,777.78 281.97,783.00 L 285.70 792.50 L 292.10 793.24 C295.62,793.65 300.19,794.13 302.26,794.30 C304.33,794.48 306.57,795.17 307.25,795.85 C308.57,797.17 305.92,800.09 297.25,806.85 C294.91,808.68 292.73,811.21 292.42,812.48 C292.10,813.75 292.79,819.41 293.96,825.05 ZM 309.63 705.02 C307.76,706.66 305.62,708.00 304.87,708.00 C302.85,708.00 291.00,693.69 291.00,691.25 C291.00,690.74 292.91,689.75 295.25,689.06 C306.16,685.82 330.47,675.33 345.00,667.59 C349.67,665.10 353.85,663.05 354.28,663.03 C354.72,663.01 354.78,665.18 354.43,667.84 C353.95,671.45 354.22,673.53 355.51,676.02 C355.60,676.19 355.68,676.35 355.76,676.50 C356.22,677.36 356.57,678.02 356.54,678.66 C356.46,680.84 352.11,682.85 333.26,692.11 C322.13,697.57 311.49,703.38 309.63,705.02 ZM 336.25 725.54 C325.36,728.44 323.43,728.55 322.58,726.36 C322.24,725.45 322.09,724.57 322.26,724.40 C322.44,724.23 326.38,722.80 331.04,721.21 C347.25,715.69 368.66,706.46 392.29,694.79 C412.52,684.81 416.16,683.31 416.63,684.78 C416.92,685.72 417.90,688.24 418.79,690.36 C420.32,694.03 420.31,694.30 418.51,695.61 C417.47,696.38 416.11,697.00 415.48,697.00 C414.86,697.00 410.79,698.52 406.43,700.37 C382.11,710.73 353.94,720.83 336.25,725.54 ZM 281.24 626.93 C281.05,626.97 280.90,627.00 280.77,627.00 C279.99,627.00 278.28,629.14 276.96,631.75 C273.03,639.55 274.21,650.61 279.43,654.95 C281.91,657.00 281.35,657.72 275.82,659.56 C270.69,661.26 270.63,661.26 268.85,659.06 C265.75,655.23 259.37,643.00 253.18,629.00 C246.57,614.05 244.31,607.05 245.81,606.11 C246.29,605.80 245.08,603.72 243.06,601.31 C244.58,602.79 246.30,604.51 248.13,606.34 C258.65,616.93 262.57,619.52 276.21,624.93 ZM 237.61 596.25 C237.60,597.16 238.76,601.03 240.51,606.16 C238.61,600.65 237.30,596.44 237.50,596.20 C237.51,596.19 237.55,596.21 237.61,596.25 Z" fill="rgb(149,13,7)"/>
<path d="M 0.00 510.00 L 0.00 0.00 L 514.00 0.00 L 1028.00 0.00 L 1028.00 510.00 L 1028.00 1020.00 L 514.00 1020.00 L 0.00 1020.00 L 0.00 510.00 ZM 562.17 959.97 C642.93,954.51 717.53,929.73 783.93,886.28 C895.46,813.29 969.02,696.31 985.94,565.00 C991.19,524.23 991.19,489.77 985.94,449.00 C969.82,323.93 902.29,211.98 797.99,137.40 C743.38,98.36 677.41,71.30 609.50,60.09 C580.95,55.37 569.99,54.58 533.50,54.61 C495.67,54.65 481.26,55.84 450.50,61.50 C309.12,87.50 189.35,177.70 124.50,307.01 L 119.07 317.83 L 112.28 318.48 C98.52,319.79 80.78,326.24 69.50,334.03 C57.10,342.58 42.93,362.80 36.13,381.63 C30.19,398.09 28.43,411.09 29.92,427.50 C31.89,449.12 39.29,468.39 52.00,485.00 L 56.97 491.50 L 53.26 494.50 C30.50,512.90 16.31,536.30 13.47,560.15 C10.96,581.15 14.69,599.47 25.78,620.67 C27.90,624.72 28.05,624.81 31.00,623.69 C32.67,623.06 33.83,622.09 33.58,621.52 C24.06,600.17 22.50,593.06 23.28,574.54 C23.85,560.70 26.20,550.38 31.50,538.40 C37.42,525.02 51.60,506.94 65.86,494.59 L 70.21 490.81 L 67.25 487.66 C60.06,480.00 51.47,466.56 47.43,456.65 C42.15,443.68 40.60,435.50 40.58,420.50 C40.56,408.15 40.89,405.33 43.36,396.56 C48.09,379.81 56.94,364.43 69.50,351.15 C83.59,336.25 98.69,328.51 122.14,324.19 L 131.50 322.46 L 140.11 305.93 C200.48,189.98 307.84,107.10 434.57,78.63 C469.81,70.71 495.62,67.97 534.50,68.00 C583.42,68.04 622.27,73.78 666.50,87.50 C758.09,115.91 838.75,174.30 895.13,253.00 C938.93,314.13 964.99,382.85 974.21,461.50 C975.97,476.51 975.95,538.74 974.18,553.50 C967.69,607.64 954.77,652.54 932.46,698.50 C888.95,788.16 815.45,861.19 725.65,903.99 C677.04,927.16 630.15,940.11 575.10,945.58 C553.83,947.69 502.38,947.13 482.00,944.57 C407.61,935.21 340.58,909.69 280.00,867.68 C243.28,842.21 206.71,807.22 180.53,772.50 C176.79,767.55 173.66,763.40 173.56,763.27 C173.24,762.88 156.02,758.00 154.93,758.00 C153.48,758.00 164.07,773.24 175.19,787.14 C223.66,847.78 284.59,894.22 355.15,924.33 C419.52,951.80 493.78,964.58 562.17,959.97 ZM 561.58 922.61 C561.83,922.29 557.79,857.16 557.41,855.25 C557.01,853.25 556.36,853.00 551.48,853.00 C546.47,853.00 546.00,853.19 545.98,855.25 C545.93,861.33 548.23,921.66 548.56,922.74 C548.83,923.64 550.63,923.81 555.21,923.35 C558.67,923.00 561.54,922.67 561.58,922.61 ZM 500.36 916.85 C500.71,913.47 501.00,907.40 501.00,903.35 L 501.00 896.00 L 512.04 896.00 C523.64,896.00 528.25,894.70 532.21,890.32 C536.63,885.43 538.27,875.12 535.96,866.78 C534.75,862.42 530.86,857.50 527.10,855.55 C524.95,854.44 501.70,852.00 493.27,852.00 C491.54,852.00 491.29,854.06 489.63,881.25 C488.66,897.34 487.60,913.06 487.29,916.18 L 486.73 921.86 L 490.61 922.26 C500.38,923.27 499.64,923.67 500.36,916.85 ZM 587.73 919.61 C587.87,919.46 586.84,908.87 585.44,896.07 C584.04,883.27 583.06,872.32 583.25,871.74 C583.45,871.16 586.25,874.46 589.47,879.09 C594.15,885.79 606.85,902.73 614.72,912.74 C615.78,914.09 616.69,914.13 621.99,913.00 C625.33,912.29 628.28,911.36 628.55,910.92 C628.94,910.29 619.47,854.23 617.43,845.13 C616.95,842.96 616.56,842.82 612.70,843.43 C610.39,843.80 608.23,844.42 607.90,844.80 C607.41,845.37 612.37,880.02 614.40,890.25 C614.70,891.76 614.55,893.00 614.06,893.00 C613.04,893.00 593.41,866.75 586.90,856.69 L 582.50 849.88 L 577.05 850.47 C574.05,850.80 571.40,851.26 571.16,851.51 C570.68,851.98 575.77,914.87 576.60,918.87 C577.07,921.11 577.39,921.21 582.28,920.56 C585.13,920.18 587.58,919.75 587.73,919.61 ZM 471.99 919.25 C471.99,918.84 473.38,903.28 475.08,884.67 C476.78,866.07 477.93,850.60 477.63,850.30 C476.63,849.30 467.62,847.98 466.96,848.74 C465.93,849.96 458.93,916.33 459.75,917.14 C460.16,917.55 462.75,918.31 465.50,918.83 C472.27,920.11 472.00,920.09 471.99,919.25 ZM 450.37 913.75 C450.70,912.51 450.98,909.92 450.99,907.99 L 451.00 904.48 L 435.40 900.55 C426.82,898.40 419.58,896.07 419.32,895.38 C419.05,894.70 421.14,881.93 423.94,867.01 C426.75,852.09 428.82,839.52 428.55,839.08 C427.70,837.71 418.95,835.64 418.07,836.60 C417.28,837.47 404.00,899.46 404.00,902.29 C404.00,903.23 408.68,905.05 418.25,907.84 C429.74,911.17 445.70,915.34 449.13,915.90 C449.48,915.95 450.04,914.99 450.37,913.75 ZM 645.25 906.61 C650.71,905.03 651.00,904.78 651.01,901.72 C651.01,899.95 651.29,896.20 651.63,893.38 L 652.25 888.27 L 664.51 883.63 C671.26,881.09 677.39,879.02 678.14,879.05 C678.89,879.08 681.42,881.79 683.76,885.08 C687.97,890.98 688.04,891.03 690.76,889.63 C692.27,888.86 695.21,887.51 697.29,886.64 L 701.09 885.06 L 693.76 875.78 C683.42,862.69 659.92,830.15 659.47,828.29 C659.44,828.18 656.18,829.30 652.22,830.79 C646.61,832.90 645.02,833.94 645.01,835.50 C644.97,842.04 639.22,895.48 637.44,905.88 C637.00,908.44 637.18,909.15 638.18,908.77 C638.91,908.50 642.09,907.52 645.25,906.61 ZM 396.48 865.48 C400.67,847.89 404.30,832.79 404.56,831.92 C404.91,830.74 403.62,829.86 399.54,828.47 C396.53,827.45 393.88,826.81 393.65,827.05 C393.00,827.76 376.12,892.45 376.48,892.82 C377.02,893.35 388.43,897.90 388.66,897.67 C388.78,897.55 392.30,883.07 396.48,865.48 ZM 729.68 871.59 C742.72,865.34 749.76,856.79 750.73,846.01 C751.41,838.59 749.39,832.74 744.54,828.04 C739.69,823.34 734.50,823.02 719.68,826.52 C708.69,829.12 707.92,829.18 705.53,827.61 C700.22,824.13 704.21,816.31 713.22,812.55 C718.17,810.48 719.34,810.58 722.67,813.35 L 725.50 815.70 L 730.76 812.31 C736.75,808.46 736.73,807.60 730.50,802.14 C721.75,794.45 702.29,801.11 694.46,814.47 C690.59,821.07 690.20,827.56 693.25,834.24 C695.30,838.72 696.55,840.09 700.19,841.85 C705.92,844.63 709.52,844.56 722.49,841.43 C732.26,839.08 733.34,838.99 735.50,840.41 C738.58,842.43 739.40,845.27 738.05,849.34 C735.86,855.97 725.68,862.88 720.11,861.50 C718.67,861.15 716.05,859.47 714.28,857.77 L 711.07 854.67 L 705.52 858.36 C700.03,862.00 699.99,862.07 701.39,864.77 C704.49,870.74 711.29,874.90 718.03,874.96 C721.18,874.99 724.71,873.97 729.68,871.59 ZM 334.38 858.74 C336.52,852.56 338.56,847.17 338.92,846.76 C339.28,846.36 343.76,848.16 348.88,850.76 C356.90,854.85 359.01,855.50 364.16,855.50 C369.88,855.50 370.31,855.32 374.00,851.36 C378.63,846.40 380.35,840.79 379.81,832.38 C379.27,823.93 376.07,819.28 367.28,814.22 C348.93,803.65 343.76,800.91 342.79,801.24 C341.79,801.57 317.55,862.93 318.19,863.48 C319.73,864.80 328.72,869.97 329.50,869.98 C330.05,869.98 332.25,864.93 334.38,858.74 ZM 293.96 825.05 C292.79,819.41 292.10,813.75 292.42,812.48 C292.73,811.21 294.91,808.68 297.25,806.85 C305.92,800.09 308.57,797.17 307.25,795.85 C306.57,795.17 304.33,794.48 302.26,794.30 C300.19,794.13 295.62,793.65 292.10,793.24 L 285.70 792.50 L 281.97 783.00 C279.93,777.78 277.94,772.60 277.56,771.51 C276.90,769.59 276.80,769.61 274.94,772.01 C273.88,773.38 272.52,776.29 271.91,778.47 C271.30,780.65 270.17,783.34 269.40,784.44 C268.63,785.54 268.00,787.22 268.00,788.17 C268.00,791.68 264.11,793.00 253.75,793.00 C240.30,793.00 240.05,793.97 250.96,804.03 L 259.28 811.69 L 258.49 815.59 C258.06,817.74 257.57,820.17 257.41,821.00 C257.24,821.83 256.41,824.97 255.55,828.00 C254.69,831.03 254.20,834.06 254.46,834.75 C255.11,836.45 257.48,836.33 258.99,834.52 C259.66,833.70 262.24,832.02 264.71,830.79 C267.18,829.56 270.30,827.52 271.65,826.27 C274.70,823.45 276.16,823.42 278.60,826.11 C279.64,827.28 281.40,828.63 282.50,829.11 C283.60,829.60 286.71,831.59 289.41,833.54 C292.25,835.58 294.70,836.70 295.21,836.19 C295.72,835.68 295.19,830.97 293.96,825.05 ZM 778.32 833.62 C780.07,832.32 783.53,830.07 786.00,828.63 C795.17,823.30 794.38,823.37 799.82,827.37 C802.54,829.37 805.09,831.00 805.49,831.00 C805.89,831.00 807.55,832.12 809.18,833.50 C813.27,836.94 815.44,836.84 814.55,833.25 C814.17,831.74 813.14,826.26 812.27,821.08 L 810.68 811.67 L 813.59 809.21 C820.35,803.51 827.97,795.76 827.52,795.04 C827.26,794.61 823.01,793.95 818.08,793.56 C803.91,792.45 804.07,792.54 801.01,783.95 C797.49,774.05 795.88,770.88 794.58,771.30 C793.61,771.62 788.50,782.38 786.11,789.15 C785.19,791.75 784.98,791.80 773.34,792.47 C766.83,792.84 761.14,793.23 760.71,793.33 C760.28,793.44 764.05,797.66 769.09,802.71 C776.57,810.21 778.16,812.32 777.73,814.20 C777.44,815.46 776.54,818.97 775.73,822.00 C773.16,831.58 772.84,836.00 774.73,836.00 C774.95,836.00 776.57,834.93 778.32,833.62 ZM 552.50 830.00 C571.71,828.76 581.07,827.53 599.07,823.90 C671.38,809.30 737.28,769.30 784.83,711.15 L 793.13 701.00 L 784.81 701.03 L 776.50 701.06 L 773.04 705.66 C771.13,708.18 764.21,715.83 757.65,722.66 C708.10,774.23 644.65,806.03 572.03,815.70 C554.24,818.07 513.97,818.04 497.09,815.65 C443.31,808.03 396.13,789.63 355.40,760.39 C347.53,754.74 347.48,754.73 343.26,755.86 C340.92,756.48 337.62,757.56 335.92,758.25 L 332.82 759.52 L 344.66 768.13 C399.60,808.10 462.32,829.04 532.50,830.84 C535.25,830.91 544.25,830.53 552.50,830.00 ZM 571.61 811.99 C635.26,803.81 692.71,777.91 740.83,735.68 C751.29,726.50 773.00,703.39 773.00,701.43 C773.00,700.07 770.77,699.48 762.00,698.48 C745.91,696.66 729.63,690.68 712.71,680.37 C702.42,674.09 701.56,673.76 698.63,674.81 C695.51,675.94 682.95,677.86 665.00,679.96 C659.78,680.57 651.45,681.55 646.50,682.14 C641.55,682.72 636.51,683.59 635.29,684.06 C634.08,684.53 623.05,686.13 610.79,687.61 C598.53,689.09 588.10,690.66 587.61,691.10 C585.69,692.79 592.89,693.27 602.61,692.08 C611.54,690.99 613.16,691.03 615.83,692.41 C619.86,694.50 622.00,697.71 622.00,701.68 C622.00,704.64 615.12,721.93 612.85,724.67 C612.31,725.33 607.51,726.16 602.05,726.54 L 592.22 727.24 L 594.61 730.76 C599.21,737.54 596.97,742.91 586.09,751.25 C579.73,756.12 579.62,756.16 573.15,755.83 L 566.63 755.50 L 565.81 758.67 C564.94,761.99 560.12,766.41 554.00,769.48 C552.08,770.45 549.83,771.81 549.00,772.50 C544.61,776.19 520.81,782.33 504.50,783.98 C482.27,786.23 466.90,782.18 448.88,769.30 C446.34,767.48 443.74,766.00 443.11,766.00 C442.48,766.00 440.11,767.17 437.85,768.59 C435.59,770.02 430.77,772.35 427.12,773.77 C421.50,775.96 418.84,776.36 409.50,776.43 C403.45,776.47 396.33,776.17 393.67,775.76 C386.58,774.67 388.02,776.66 398.07,781.85 C425.40,795.96 458.95,806.57 490.00,810.93 C509.29,813.64 509.25,813.64 534.21,813.83 C550.91,813.96 559.55,813.53 571.61,811.99 ZM 513.50 772.54 C518.45,771.76 525.88,770.17 530.00,769.01 C539.13,766.44 555.87,758.50 556.70,756.34 C557.11,755.27 555.56,753.21 551.90,749.93 C548.93,747.26 546.18,745.07 545.78,745.04 C545.39,745.02 542.33,746.77 538.99,748.93 C535.64,751.09 529.21,754.29 524.70,756.04 C517.51,758.82 515.20,759.23 506.00,759.36 C489.60,759.58 475.24,755.00 458.29,744.13 C453.90,741.31 449.46,739.00 448.44,739.00 C447.41,739.00 442.93,740.78 438.48,742.95 C425.31,749.39 412.98,751.48 399.89,749.50 C391.83,748.28 381.43,745.21 375.85,742.39 C373.51,741.21 372.36,741.35 366.05,743.55 C358.12,746.32 354.85,748.06 355.27,749.31 C355.76,750.79 375.29,758.78 387.52,762.50 C408.81,768.98 421.30,767.69 437.70,757.30 C440.56,755.48 443.94,754.02 445.20,754.04 C446.47,754.06 450.42,756.30 454.00,759.03 C462.47,765.50 472.34,770.65 479.64,772.42 C487.30,774.27 502.22,774.32 513.50,772.54 ZM 285.00 759.55 C302.75,757.41 318.51,754.48 329.00,751.39 C348.31,745.70 378.99,735.24 402.00,726.51 C415.48,721.39 430.33,716.00 435.00,714.54 C452.38,709.09 480.39,702.02 480.96,702.94 C481.28,703.46 485.36,705.34 490.02,707.13 C497.52,710.00 499.66,710.38 508.50,710.39 C519.56,710.42 528.73,708.18 539.22,702.89 C542.37,701.30 545.90,700.00 547.08,700.00 C548.25,700.00 552.52,702.21 556.55,704.91 C569.15,713.33 580.93,716.40 598.45,715.83 L 608.41 715.50 L 610.80 709.22 C613.78,701.42 613.36,699.73 608.80,701.11 C606.99,701.67 601.22,702.15 596.00,702.19 C584.55,702.28 574.80,699.49 563.87,692.99 C557.16,689.00 556.53,688.83 551.30,689.48 C543.02,690.52 540.91,690.94 536.00,692.53 C533.53,693.33 529.25,694.23 526.50,694.53 C523.75,694.84 519.03,695.49 516.00,696.00 C512.97,696.50 508.48,697.18 506.00,697.51 C503.52,697.84 497.75,698.98 493.17,700.05 C485.42,701.87 477.85,702.72 484.50,701.03 C529.39,689.64 615.46,674.90 674.00,668.57 C681.97,667.70 690.00,666.75 691.82,666.44 L 695.15 665.88 L 691.28 661.69 C689.16,659.39 685.41,654.65 682.96,651.17 L 678.50 644.84 L 673.00 645.48 C623.70,651.25 496.53,678.37 454.14,692.16 C447.34,694.37 432.04,700.24 420.14,705.20 C375.53,723.80 355.47,730.86 327.00,738.00 C274.81,751.09 232.60,752.08 184.00,741.36 C124.56,728.24 76.33,695.29 54.53,652.91 C51.87,647.74 49.20,643.31 48.59,643.09 C47.99,642.86 44.76,640.05 41.42,636.84 C38.07,633.63 34.98,631.00 34.55,631.00 C33.35,631.00 34.78,637.12 37.62,644.10 C50.95,676.91 75.64,705.82 108.00,726.53 C132.16,741.99 171.77,756.43 199.50,759.88 C204.45,760.50 209.62,761.20 211.00,761.43 C217.18,762.49 272.28,761.08 285.00,759.55 ZM 582.87 741.91 C585.69,739.67 588.00,737.42 588.00,736.91 C588.00,736.40 582.89,733.54 576.65,730.55 C570.41,727.56 561.56,722.61 557.00,719.56 C552.43,716.50 548.48,714.00 548.23,714.00 C547.97,714.00 543.87,716.24 539.13,718.98 C529.39,724.60 517.95,728.00 508.80,728.00 C496.44,728.00 478.42,722.44 464.70,714.40 C461.50,712.53 458.27,711.00 457.50,711.00 C455.32,711.00 433.94,717.65 422.02,722.04 C404.02,728.66 404.19,728.57 404.75,731.46 C405.21,733.86 405.58,734.00 411.54,734.00 C420.66,734.00 427.26,732.19 437.95,726.76 L 447.40 721.96 L 452.97 725.40 C483.58,744.29 509.28,746.82 538.20,733.77 L 544.89 730.75 L 551.70 735.07 C559.53,740.05 572.52,745.97 575.62,745.99 C576.79,745.99 580.05,744.16 582.87,741.91 ZM 314.36 732.97 L 320.21 731.81 L 316.86 728.32 C315.01,726.40 311.86,723.98 309.86,722.95 C307.61,721.79 305.82,719.94 305.18,718.10 C304.61,716.46 300.85,711.13 296.82,706.24 C292.80,701.36 288.15,695.67 286.50,693.62 L 283.50 689.87 L 278.00 691.04 C274.98,691.69 272.15,692.54 271.71,692.94 C270.81,693.78 282.30,709.19 291.53,719.50 C303.44,732.82 305.74,735.04 307.12,734.58 C307.88,734.33 311.14,733.60 314.36,732.97 ZM 336.25 725.54 C353.94,720.83 382.11,710.73 406.43,700.37 C410.79,698.52 414.86,697.00 415.48,697.00 C416.11,697.00 417.47,696.38 418.51,695.61 C420.31,694.30 420.32,694.03 418.79,690.36 C417.90,688.24 416.92,685.72 416.63,684.78 C416.16,683.31 412.52,684.81 392.29,694.79 C368.66,706.46 347.25,715.69 331.04,721.21 C326.38,722.80 322.44,724.23 322.26,724.40 C322.09,724.57 322.24,725.45 322.58,726.36 C323.43,728.55 325.36,728.44 336.25,725.54 ZM 138.01 704.40 C133.60,695.66 128.85,685.54 127.47,681.92 C126.08,678.29 124.06,673.58 122.97,671.45 C121.89,669.32 121.00,667.05 121.00,666.41 C121.00,664.99 117.77,664.03 112.93,664.01 C102.55,663.97 79.45,658.27 69.67,653.33 C67.01,651.98 64.40,651.03 63.87,651.21 C61.91,651.86 70.79,663.85 74.70,665.83 C79.91,668.46 91.89,672.34 101.50,674.50 C105.90,675.49 109.97,676.79 110.55,677.40 C111.13,678.00 113.12,682.10 114.98,686.50 C116.83,690.90 120.31,698.48 122.72,703.33 L 127.11 712.17 L 136.30 716.46 C141.36,718.82 145.62,720.64 145.77,720.52 C145.92,720.40 142.43,713.14 138.01,704.40 ZM 323.07 713.48 C327.16,712.10 331.85,710.35 333.50,709.59 C335.15,708.83 339.65,707.09 343.50,705.72 C354.07,701.95 364.57,697.02 398.00,680.13 C458.19,649.74 463.61,647.03 471.50,643.41 C501.51,629.67 540.13,615.50 565.50,608.92 C567.70,608.35 571.75,607.24 574.50,606.46 C579.72,604.97 597.32,601.14 602.50,600.36 C604.15,600.11 606.62,599.49 608.00,598.98 C609.38,598.46 614.78,597.37 620.00,596.55 C625.22,595.72 631.97,594.58 635.00,594.00 C641.43,592.77 650.54,591.30 657.25,590.41 L 662.00 589.77 L 662.00 579.41 L 662.00 569.04 L 657.25 569.57 C651.75,570.18 637.10,572.75 632.00,573.99 C630.08,574.46 625.12,575.34 621.00,575.94 C611.36,577.34 594.94,581.00 578.50,585.41 C512.98,603.00 475.99,619.21 410.00,659.25 C369.99,683.52 360.17,689.07 338.41,699.67 C319.46,708.90 311.62,713.57 312.55,715.08 C313.41,716.47 314.97,716.23 323.07,713.48 ZM 309.63 705.02 C311.49,703.38 322.13,697.57 333.26,692.11 C358.68,679.63 357.73,680.31 355.51,676.02 C354.22,673.53 353.95,671.45 354.43,667.84 C354.78,665.18 354.72,663.01 354.28,663.03 C353.85,663.05 349.67,665.10 345.00,667.59 C330.47,675.33 306.16,685.82 295.25,689.06 C292.91,689.75 291.00,690.74 291.00,691.25 C291.00,693.69 302.85,708.00 304.87,708.00 C305.62,708.00 307.76,706.66 309.63,705.02 ZM 243.00 687.98 C266.61,685.92 290.51,680.39 312.70,671.84 C333.11,663.98 365.76,646.11 398.00,625.18 C424.46,608.00 451.39,591.20 465.96,582.79 C513.09,555.56 561.11,537.60 624.50,523.50 C642.92,519.40 678.78,513.00 683.30,513.00 C684.38,513.00 688.81,509.35 693.50,504.59 C698.06,499.96 703.64,494.94 705.91,493.44 C708.18,491.94 709.89,490.55 709.70,490.36 C709.15,489.82 676.31,493.73 661.70,496.07 C601.95,505.67 545.81,522.56 503.69,543.64 C480.14,555.42 457.41,568.86 412.25,597.70 C359.63,631.30 339.62,642.82 313.73,654.41 C278.16,670.33 252.08,676.33 218.00,676.44 C191.89,676.52 176.92,674.01 157.58,666.32 C149.30,663.02 148.07,662.80 140.30,663.21 C134.44,663.51 131.45,664.12 130.33,665.24 C128.88,666.69 129.11,667.02 133.02,669.01 C161.06,683.32 206.52,691.16 243.00,687.98 ZM 802.50 685.59 C838.88,676.17 867.18,647.61 877.15,610.24 C879.81,600.27 880.80,577.73 879.02,567.60 C870.84,521.11 834.74,486.49 788.19,480.48 L 782.88 479.80 L 783.19 484.52 L 783.50 489.24 L 790.63 491.04 C814.92,497.20 827.20,512.44 824.00,532.48 C821.91,545.59 813.93,560.11 802.58,571.46 L 796.11 577.93 L 799.55 578.46 C801.45,578.76 804.69,579.26 806.75,579.57 C812.63,580.46 820.44,584.43 824.65,588.68 C830.63,594.71 833.31,601.11 833.81,610.53 C834.37,621.19 832.76,628.27 827.33,639.12 C819.13,655.51 804.21,667.63 787.39,671.58 C779.06,673.54 762.62,673.05 753.50,670.57 C745.93,668.52 732.07,661.96 725.80,657.45 C723.16,655.55 720.79,654.00 720.54,654.00 C719.94,654.00 710.59,663.95 710.20,665.00 C709.67,666.41 726.70,677.06 735.25,680.67 C742.64,683.79 754.21,687.05 762.50,688.36 C764.15,688.62 771.58,688.68 779.00,688.51 C789.50,688.25 794.72,687.60 802.50,685.59 ZM 444.21 682.13 C459.70,675.48 523.87,655.34 546.50,650.02 C585.42,640.88 583.91,641.20 604.50,637.45 C608.90,636.65 614.75,635.56 617.50,635.03 C620.25,634.50 625.65,633.61 629.50,633.05 C633.35,632.50 642.50,631.13 649.84,630.02 C657.18,628.91 664.49,628.00 666.09,628.00 C667.69,628.00 669.00,627.56 669.00,627.02 C669.00,625.59 664.05,608.71 663.46,608.12 C662.94,607.60 636.75,612.05 624.50,614.74 C609.32,618.06 567.96,628.27 558.50,631.02 C523.50,641.19 483.01,656.30 453.68,670.13 C434.51,679.17 428.63,682.60 429.60,684.16 C430.54,685.69 438.48,684.58 444.21,682.13 ZM 369.88 667.83 C377.00,663.56 387.51,656.49 387.83,655.75 C388.02,655.34 388.56,655.00 389.05,655.00 C389.81,655.00 405.35,645.29 413.00,640.04 C424.99,631.81 472.15,606.90 490.50,599.11 C496.00,596.77 501.40,594.46 502.50,593.98 C512.84,589.40 563.96,572.85 585.50,567.10 C614.89,559.26 631.00,555.81 654.97,552.20 L 666.44 550.48 L 669.03 543.49 C670.46,539.64 672.20,535.45 672.89,534.16 C673.59,532.88 674.01,531.70 673.83,531.54 C673.44,531.20 661.80,533.06 642.50,536.55 C634.80,537.94 627.23,539.30 625.69,539.57 C619.99,540.57 600.34,545.02 595.00,546.52 C591.97,547.37 585.45,549.16 580.50,550.49 C552.83,557.94 514.89,572.11 489.00,584.65 C454.51,601.36 436.44,612.49 393.18,643.69 C371.40,659.39 365.00,664.90 365.00,667.95 C365.00,670.52 365.42,670.51 369.88,667.83 ZM 262.17 663.88 L 265.83 662.97 L 258.14 647.73 C253.91,639.36 248.73,628.14 246.63,622.80 C241.78,610.49 237.13,596.63 237.65,596.06 C237.87,595.81 240.01,597.84 242.41,600.56 C244.81,603.28 246.34,605.77 245.81,606.11 C244.31,607.05 246.57,614.05 253.18,629.00 C259.37,643.00 265.75,655.23 268.85,659.06 C270.63,661.26 270.69,661.26 275.82,659.56 C281.35,657.72 281.91,657.00 279.43,654.95 C274.21,650.61 273.03,639.55 276.96,631.75 C278.28,629.14 279.99,627.00 280.77,627.00 C281.55,627.00 283.57,626.02 285.26,624.81 C286.95,623.61 291.07,621.57 294.42,620.28 C299.25,618.42 299.75,618.06 296.83,618.50 C291.37,619.33 279.47,616.51 271.11,612.39 C262.87,608.33 250.48,597.30 244.85,588.98 C243.01,586.27 241.25,584.04 240.95,584.03 C240.64,584.01 239.60,586.36 238.64,589.25 C237.67,592.14 235.05,598.37 232.81,603.10 L 228.74 611.69 L 234.50 626.10 C240.34,640.73 248.72,658.34 252.12,663.16 C254.08,665.92 253.98,665.91 262.17,663.88 ZM 710.15 653.25 C718.03,645.14 724.56,636.77 727.74,630.70 L 730.46 625.50 L 731.14 587.50 C731.94,542.15 733.22,532.71 740.66,517.14 C745.31,507.43 754.04,498.62 763.96,493.66 C767.98,491.65 771.88,490.00 772.63,490.00 C773.61,490.00 774.00,488.54 774.00,484.86 L 774.00 479.71 L 766.10 480.37 C720.56,484.17 682.23,519.32 673.51,565.25 C671.66,575.04 671.61,592.92 673.42,603.05 C675.30,613.58 679.96,626.58 685.07,635.51 C690.05,644.21 701.56,659.00 703.35,659.00 C704.02,659.00 707.08,656.41 710.15,653.25 ZM 146.50 651.57 C162.72,648.37 179.17,641.63 192.50,632.72 C195.80,630.52 202.79,624.37 208.04,619.07 C218.67,608.33 224.66,598.30 229.30,583.50 C232.98,571.76 233.41,567.38 231.59,560.37 C228.82,549.65 227.02,538.77 226.42,529.02 C225.96,521.49 225.29,518.45 223.24,514.50 C217.38,503.18 205.05,489.25 190.57,477.58 L 185.70 473.65 L 188.60 471.23 C199.07,462.49 205.45,456.17 210.24,449.80 C231.99,420.88 233.16,389.82 213.63,360.28 C211.00,356.31 206.53,351.18 203.68,348.88 C189.59,337.54 164.65,331.01 140.50,332.34 C104.39,334.34 83.20,345.66 65.62,372.36 C54.53,389.20 50.71,401.48 50.64,420.50 C50.60,431.11 51.01,434.97 52.86,441.50 C57.18,456.72 65.81,471.35 77.88,483.90 C81.80,487.97 85.00,491.59 85.00,491.95 C85.00,492.31 81.85,495.01 77.99,497.93 C68.83,504.90 54.74,519.74 48.69,528.79 C38.26,544.40 32.99,561.24 33.01,578.88 C33.03,592.08 34.82,599.93 40.45,611.50 C47.74,626.50 59.27,637.17 77.06,645.39 C83.58,648.40 95.33,651.39 108.50,653.38 C114.41,654.27 138.65,653.12 146.50,651.57 ZM 310.71 648.92 C330.03,641.97 355.69,629.66 374.00,618.55 C400.96,602.20 449.22,570.17 449.79,568.25 C450.01,567.51 449.26,567.00 447.95,567.00 C446.12,567.00 418.23,575.96 373.50,590.91 C368.50,592.58 362.87,595.47 358.50,598.59 C340.41,611.53 324.36,619.51 302.35,626.52 C290.01,630.45 286.46,633.01 285.38,638.77 C284.60,642.93 286.97,648.19 290.35,649.82 C294.08,651.63 304.46,651.17 310.71,648.92 ZM 304.89 606.47 C319.77,602.96 339.29,589.33 347.93,576.42 C361.86,555.58 369.66,528.90 370.70,498.50 C372.37,449.28 354.35,422.60 323.72,428.96 C315.62,430.64 305.87,435.81 296.20,443.57 C291.63,447.23 287.65,449.98 287.35,449.68 C286.34,448.67 290.01,425.57 292.98,414.25 C296.34,401.42 300.55,390.38 305.65,381.00 C310.01,372.99 312.97,369.77 318.16,367.43 C321.79,365.79 322.56,365.76 326.24,367.06 C333.15,369.50 335.76,375.26 337.94,392.91 C338.52,397.53 339.17,401.50 339.39,401.72 C339.82,402.15 363.99,393.09 365.26,392.02 C366.32,391.13 364.30,359.53 362.46,348.07 C361.62,342.88 360.39,337.97 359.73,337.18 C357.84,334.89 328.09,336.16 317.64,338.97 C308.40,341.46 297.96,346.49 289.29,352.64 C270.19,366.19 251.94,405.02 242.62,452.00 C237.51,477.71 236.60,487.04 236.64,513.00 C236.68,539.55 237.72,547.38 243.56,564.77 C248.48,579.44 262.29,596.54 274.05,602.55 C285.18,608.23 293.13,609.24 304.89,606.47 ZM 350.00 594.30 C353.58,591.93 357.55,589.24 358.83,588.32 C360.11,587.40 364.61,585.41 368.83,583.88 C374.28,581.91 375.69,581.10 373.68,581.06 C370.08,580.98 367.04,579.44 364.44,576.38 L 362.39 573.95 L 357.46 581.23 C354.76,585.23 349.83,591.16 346.52,594.40 C340.01,600.78 340.22,600.78 350.00,594.30 ZM 411.09 569.93 C441.48,559.88 449.98,557.85 453.60,559.78 C455.17,560.63 458.02,559.38 469.51,552.84 C500.10,535.40 522.89,525.01 555.00,513.87 C565.72,510.15 573.68,507.08 572.67,507.05 C570.21,506.98 545.64,514.12 529.00,519.74 C519.62,522.90 513.67,524.34 509.50,524.45 C506.20,524.54 502.15,525.19 500.50,525.90 C498.85,526.61 489.85,530.09 480.50,533.63 C453.62,543.82 429.45,554.43 403.00,567.63 C389.52,574.36 378.99,579.89 379.59,579.93 C380.19,579.97 394.36,575.47 411.09,569.93 ZM 436.00 540.27 C453.81,532.70 470.45,526.02 483.00,521.41 C500.46,515.00 498.02,518.17 503.89,494.32 C506.71,482.87 509.01,472.53 509.01,471.34 C509.00,469.01 508.81,469.00 490.23,470.62 C482.86,471.26 483.26,470.73 477.49,487.76 C472.44,502.70 471.20,503.90 452.73,511.77 C444.68,515.20 437.10,518.00 435.88,518.00 C431.39,518.00 430.00,515.36 430.00,506.86 C430.00,500.21 432.60,458.35 433.28,454.08 C433.53,452.49 450.17,448.08 456.13,448.03 C460.83,447.99 461.74,449.25 462.71,457.05 C463.69,465.04 464.00,465.11 477.46,460.69 C489.33,456.80 488.28,459.21 489.95,432.00 C492.42,391.84 492.42,392.00 490.85,392.00 C488.40,392.00 470.83,396.02 469.00,397.00 C467.91,397.59 466.82,400.22 466.04,404.20 C464.41,412.51 462.53,415.88 458.68,417.46 C454.81,419.05 438.53,421.42 436.60,420.68 C435.49,420.25 435.29,417.91 435.61,409.32 C436.27,391.35 438.11,357.64 438.55,355.40 C438.92,353.50 440.04,353.19 450.29,352.15 C464.27,350.73 471.55,350.69 474.03,352.02 C476.22,353.19 477.32,356.97 479.07,369.19 C479.75,373.96 480.65,378.44 481.08,379.13 C481.67,380.09 484.59,379.53 493.63,376.69 C500.10,374.66 505.73,372.66 506.14,372.25 C506.66,371.72 504.78,320.15 504.06,315.11 C503.96,314.42 490.91,315.92 478.50,318.05 C471.90,319.18 462.67,320.73 458.00,321.50 C453.33,322.26 438.92,324.70 426.00,326.92 C413.08,329.14 399.35,331.47 395.50,332.11 C391.65,332.75 385.80,333.77 382.50,334.39 L 376.50 335.50 L 376.50 348.50 L 376.50 361.50 L 384.31 361.79 L 392.13 362.09 L 391.57 372.29 C391.26,377.91 390.54,393.30 389.98,406.50 C388.29,445.86 384.96,514.65 384.14,527.23 C383.31,540.02 382.21,542.43 375.99,545.00 C371.77,546.75 369.70,553.84 370.92,562.41 C371.42,566.00 372.07,569.31 372.36,569.77 C372.65,570.24 383.82,565.18 397.19,558.53 C410.56,551.88 428.02,543.67 436.00,540.27 ZM 525.36 507.59 C538.81,503.07 566.89,495.13 577.34,492.89 C584.17,491.43 585.00,490.13 585.00,480.98 L 585.00 475.09 L 577.75 474.79 L 570.50 474.50 L 570.81 454.00 C571.15,430.64 571.31,430.17 579.22,429.28 C586.40,428.47 589.54,430.74 593.63,439.72 C604.03,462.53 607.09,468.01 615.05,478.07 C617.72,481.44 618.73,482.00 622.06,482.00 C625.29,482.00 655.98,477.41 666.50,475.35 C668.15,475.02 682.33,474.68 698.00,474.58 C730.22,474.38 741.89,473.02 754.81,467.98 C768.25,462.73 774.76,456.45 779.23,444.43 C783.25,433.62 781.89,407.29 776.54,392.11 C772.23,379.91 762.19,368.21 750.40,361.67 C743.69,357.94 727.36,352.00 723.83,352.00 C722.86,352.00 719.61,351.08 716.60,349.95 C706.78,346.28 702.15,338.20 703.48,327.06 C704.59,317.71 706.22,313.77 710.98,308.85 C718.15,301.45 726.22,300.23 733.98,305.37 C737.34,307.59 737.65,308.32 740.87,321.43 C742.73,328.98 744.76,335.35 745.39,335.60 C746.80,336.14 763.05,331.35 764.41,329.99 C765.63,328.77 759.61,282.44 757.97,280.46 C755.04,276.93 735.68,273.39 725.57,274.53 C692.13,278.32 667.06,306.37 665.27,342.00 C664.64,354.68 665.90,361.53 670.60,370.93 C677.77,385.26 685.92,390.89 712.00,399.51 C738.45,408.26 743.41,412.46 743.41,426.05 C743.41,433.10 740.79,439.17 735.85,443.60 C728.16,450.47 711.55,450.86 700.68,444.42 C699.68,443.83 698.48,441.81 698.01,439.92 C696.83,435.20 690.94,419.71 689.90,418.58 C689.13,417.74 666.52,425.20 664.84,426.85 C664.47,427.21 665.08,433.02 666.18,439.77 C667.29,446.52 667.96,452.65 667.68,453.39 C666.91,455.39 662.08,456.28 658.97,454.99 C656.97,454.16 654.70,451.02 650.47,443.18 C641.61,426.80 634.55,416.63 628.75,411.90 C625.86,409.55 623.07,407.26 622.54,406.80 C621.96,406.31 624.64,402.85 629.15,398.24 C640.56,386.59 646.86,376.00 650.11,363.00 C652.21,354.61 651.94,334.80 649.63,328.00 C643.44,309.77 630.75,299.35 611.64,296.79 C603.50,295.71 603.48,295.71 560.00,304.45 C536.08,309.26 516.16,313.40 515.75,313.66 C515.34,313.91 515.00,319.98 515.00,327.14 L 515.00 340.16 L 521.36 339.48 C527.22,338.85 527.76,338.96 528.25,340.85 C528.55,341.98 528.41,351.14 527.95,361.20 C527.49,371.27 526.59,396.38 525.95,417.00 C525.31,437.62 524.50,462.15 524.15,471.50 L 523.50 488.50 L 518.97 490.89 C514.57,493.22 514.39,493.50 512.64,500.89 C511.64,505.08 510.62,509.29 510.35,510.25 C509.67,512.71 510.60,512.54 525.36,507.59 ZM 578.50 506.00 C578.84,505.45 578.42,505.00 577.56,505.00 C576.70,505.00 576.00,505.45 576.00,506.00 C576.00,506.55 576.42,507.00 576.94,507.00 C577.46,507.00 578.16,506.55 578.50,506.00 ZM 455.00 499.76 C459.12,497.87 463.05,495.66 463.72,494.85 C464.39,494.04 466.46,488.98 468.33,483.62 L 471.73 473.87 L 467.99 474.50 C460.41,475.78 454.35,471.06 453.28,463.04 C452.98,460.82 452.55,459.00 452.31,459.00 C452.08,459.00 449.89,459.50 447.44,460.12 C443.39,461.14 443.00,461.51 442.95,464.37 C442.92,466.09 442.30,475.83 441.56,486.00 C440.83,496.17 440.42,504.81 440.64,505.19 C441.08,505.93 443.38,505.06 455.00,499.76 ZM 598.26 501.00 C602.24,499.91 607.85,498.06 610.71,496.90 L 615.92 494.80 L 611.23 491.65 C608.56,489.86 604.81,485.91 602.53,482.50 L 598.53 476.50 L 597.79 481.50 C597.38,484.25 596.79,488.66 596.46,491.29 C596.04,494.64 594.95,497.12 592.83,499.54 C591.16,501.44 590.07,503.00 590.41,503.00 C590.75,503.00 594.28,502.10 598.26,501.00 ZM 227.93 480.50 C231.33,446.15 244.11,400.96 257.20,377.00 C272.18,349.58 287.66,336.98 315.82,329.26 C324.67,326.84 327.14,326.61 344.64,326.56 C362.14,326.50 363.96,326.66 365.90,328.41 C367.99,330.30 368.05,330.30 370.26,328.29 C372.53,326.22 377.24,324.88 389.00,322.96 C403.80,320.55 413.43,318.93 430.50,316.00 C440.40,314.30 452.77,312.24 458.00,311.43 C463.23,310.61 468.17,309.75 469.00,309.50 C473.07,308.27 504.04,304.08 505.34,304.58 C506.17,304.89 507.92,304.44 509.24,303.58 C510.56,302.71 521.74,299.96 534.07,297.47 C546.41,294.97 566.62,290.87 579.00,288.36 C598.34,284.43 602.58,283.87 609.23,284.36 C629.62,285.87 644.59,293.82 653.70,307.98 C655.79,311.23 657.72,313.91 658.00,313.94 C658.28,313.97 660.72,309.61 663.44,304.25 C667.59,296.05 669.90,292.97 677.95,284.89 C686.21,276.60 688.85,274.63 697.06,270.64 C710.59,264.06 722.24,261.61 736.25,262.42 C742.64,262.78 747.00,262.66 747.00,262.11 C747.00,261.05 734.84,250.90 724.50,243.34 C684.78,214.30 635.75,193.65 588.17,185.93 C554.94,180.54 511.19,180.74 478.91,186.44 C407.19,199.10 340.11,236.75 292.70,290.98 C272.27,314.34 258.85,334.47 244.75,362.87 L 235.63 381.24 L 236.82 388.14 C240.71,410.83 234.26,435.81 219.62,454.75 C214.18,461.79 214.12,461.95 212.92,471.88 L 211.70 481.89 L 216.96 487.64 C219.85,490.80 222.93,494.50 223.82,495.84 L 225.43 498.30 L 226.08 495.40 C226.44,493.80 227.27,487.10 227.93,480.50 ZM 907.36 479.75 L 939.21 466.50 L 938.67 461.14 C938.37,458.20 937.98,455.68 937.81,455.54 C937.64,455.41 923.33,452.71 906.00,449.56 C888.67,446.40 873.26,443.58 871.75,443.29 C869.23,442.80 869.00,443.01 869.00,445.81 C869.00,452.54 870.21,453.73 878.44,455.06 C885.69,456.23 886.00,456.38 886.00,458.99 C886.00,460.48 886.29,465.07 886.63,469.20 L 887.27 476.70 L 879.88 479.78 C875.82,481.47 872.54,483.34 872.60,483.93 C872.66,484.52 872.77,486.80 872.85,489.00 C872.94,491.45 873.48,493.00 874.25,493.00 C874.94,493.00 889.83,487.04 907.36,479.75 ZM 839.83 478.75 C836.14,433.43 821.15,387.60 796.25,345.47 C793.64,341.05 790.38,335.88 789.00,333.97 L 786.50 330.50 L 786.00 336.92 L 785.50 343.34 L 777.82 345.92 C773.60,347.34 769.88,348.77 769.56,349.09 C769.24,349.42 772.49,353.24 776.77,357.59 C783.06,363.99 785.55,367.51 789.82,376.00 C796.55,389.40 798.90,400.07 799.65,420.50 C800.33,439.27 798.94,446.87 792.52,459.40 C790.01,464.29 788.10,468.43 788.26,468.60 C788.43,468.76 792.85,469.83 798.09,470.96 C809.81,473.50 820.02,477.40 830.50,483.34 C834.90,485.83 838.97,487.90 839.54,487.94 C840.24,487.98 840.34,484.99 839.83,478.75 ZM 587.41 455.65 C585.41,451.44 583.60,448.00 583.39,448.00 C583.18,448.00 583.00,451.11 583.00,454.90 L 583.00 461.80 L 586.75 462.73 C588.81,463.25 590.62,463.58 590.77,463.48 C590.92,463.38 589.41,459.85 587.41,455.65 ZM 508.46 459.00 L 512.68 459.00 L 513.34 432.75 C513.71,418.31 514.31,400.22 514.67,392.55 L 515.33 378.60 L 512.64 380.71 C511.16,381.88 507.76,383.39 505.09,384.07 L 500.23 385.32 L 501.74 388.91 C503.05,392.01 503.10,394.73 502.09,409.00 C501.45,418.08 500.47,432.02 499.92,440.00 C499.37,447.98 498.66,455.80 498.34,457.40 C497.79,460.21 497.88,460.27 501.01,459.65 C502.79,459.29 506.15,459.00 508.46,459.00 ZM 379.91 406.10 C380.51,394.89 381.00,382.62 381.00,378.85 C381.00,372.21 380.92,372.00 378.50,372.00 L 376.00 372.00 L 376.00 383.25 C375.99,399.01 375.81,399.25 358.98,406.01 C351.70,408.93 343.62,411.52 341.02,411.77 C336.88,412.17 335.88,411.87 333.07,409.36 C330.13,406.73 329.74,405.65 328.42,396.49 C326.21,381.11 325.08,377.00 323.07,377.00 C320.23,377.00 317.34,380.98 312.06,392.18 C306.38,404.21 299.30,427.00 301.23,427.00 C301.48,427.00 304.34,425.68 307.59,424.07 C324.54,415.67 343.06,416.05 357.15,425.10 C364.25,429.65 373.86,444.64 376.63,455.50 C377.14,457.49 377.64,453.11 378.11,442.50 C378.50,433.70 379.31,417.32 379.91,406.10 ZM 873.56 436.88 C876.00,436.27 878.00,435.36 878.00,434.87 C878.00,434.38 876.88,429.22 875.50,423.40 C874.12,417.58 873.00,412.24 873.00,411.53 C873.00,410.68 882.11,407.97 900.03,403.49 C922.64,397.85 926.98,396.48 926.60,395.12 C926.35,394.23 925.85,392.04 925.50,390.25 C925.14,388.46 924.64,387.00 924.40,387.00 C923.66,387.00 859.56,403.11 859.31,403.36 C859.18,403.48 859.70,406.04 860.46,409.04 C861.21,412.04 863.04,419.79 864.51,426.25 C865.99,432.71 867.63,438.00 868.15,438.00 C868.68,438.00 871.11,437.50 873.56,436.88 ZM 725.91 435.54 C731.56,432.63 733.46,423.45 729.19,419.73 C727.24,418.04 717.97,414.27 706.62,410.57 C697.17,407.49 697.23,407.49 699.47,409.97 C700.45,411.05 703.15,417.01 705.48,423.22 C708.64,431.64 710.33,434.81 712.11,435.74 C715.36,437.42 722.49,437.32 725.91,435.54 ZM 670.88 411.42 C677.69,408.95 685.29,406.65 687.77,406.31 L 692.28 405.69 L 685.15 402.30 C677.01,398.44 667.69,390.31 662.98,382.97 C661.23,380.24 659.50,378.00 659.14,378.00 C658.78,378.00 657.48,380.20 656.25,382.89 C654.32,387.08 650.19,393.11 642.74,402.57 C641.00,404.77 641.08,404.96 647.06,413.34 L 653.14 421.87 L 655.82 418.89 C657.78,416.71 661.84,414.69 670.88,411.42 ZM 454.68 407.28 C455.33,406.48 456.17,403.94 456.55,401.66 C457.87,393.71 459.87,390.24 464.41,388.05 C466.73,386.92 469.39,386.00 470.32,386.00 C472.35,386.00 472.35,386.07 470.57,379.65 C469.79,376.82 468.85,371.41 468.48,367.63 L 467.82 360.76 L 461.66 361.43 C458.27,361.80 453.81,362.36 451.75,362.68 L 448.00 363.26 L 447.95 368.88 C447.90,374.97 447.32,387.74 446.52,400.59 C446.24,405.04 446.29,408.95 446.62,409.29 C447.63,410.30 453.41,408.86 454.68,407.28 ZM 889.80 378.64 C904.82,373.47 917.37,368.97 917.69,368.64 C918.68,367.65 915.78,358.87 914.61,359.29 C914.00,359.51 899.47,364.53 882.33,370.45 L 851.16 381.21 L 852.56 385.16 C854.62,391.01 854.74,391.09 858.79,389.50 C860.83,388.71 874.79,383.82 889.80,378.64 ZM 877.26 352.83 C893.34,344.49 906.64,337.56 906.82,337.43 C907.15,337.19 903.16,329.00 902.71,329.00 C902.58,329.00 893.76,333.52 883.11,339.04 C872.47,344.57 863.63,348.96 863.47,348.79 C863.31,348.63 869.88,339.95 878.07,329.50 C886.27,319.05 892.98,310.14 892.98,309.71 C892.99,309.28 892.08,307.11 890.95,304.90 L 888.90 300.88 L 873.20 309.07 C836.82,328.03 829.00,332.19 829.00,332.55 C829.00,333.92 832.55,340.00 833.35,340.00 C833.89,340.00 842.58,335.72 852.66,330.48 C862.75,325.25 871.00,321.18 871.00,321.45 C871.00,321.71 864.50,330.31 856.55,340.55 L 842.11 359.17 L 844.25 363.58 C845.43,366.01 846.76,368.00 847.21,368.00 C847.65,368.00 861.17,361.18 877.26,352.83 ZM 730.13 328.00 C726.39,314.15 725.77,313.37 721.12,316.63 C716.03,320.20 714.03,332.91 718.00,336.50 C719.99,338.30 727.65,340.80 731.57,340.93 C733.58,341.00 733.54,340.65 730.13,328.00 ZM 823.39 303.68 C828.40,299.65 833.62,295.65 835.00,294.79 C836.38,293.93 846.05,291.33 856.50,289.00 C866.95,286.67 876.07,284.46 876.76,284.09 C877.67,283.60 877.17,282.26 874.92,279.21 C873.22,276.89 871.30,275.01 870.66,275.01 C870.02,275.02 863.76,276.56 856.75,278.44 C848.28,280.70 844.01,281.46 844.02,280.68 C844.04,280.03 846.74,274.35 850.02,268.06 C853.31,261.77 856.00,256.22 856.00,255.72 C856.00,254.47 850.67,247.05 849.75,247.02 C849.34,247.01 844.52,255.89 839.02,266.75 L 829.04 286.50 L 820.77 292.81 C816.22,296.28 811.43,300.00 810.12,301.07 L 807.75 303.03 L 810.51 307.01 C812.03,309.21 813.50,311.00 813.77,311.00 C814.05,311.00 818.37,307.71 823.39,303.68 ZM 257.55 286.32 L 268.30 272.63 L 264.40 269.33 C262.26,267.52 260.05,266.04 259.50,266.05 C258.95,266.06 255.57,269.90 252.00,274.60 C248.43,279.29 244.95,283.60 244.27,284.17 C243.36,284.94 237.45,280.75 221.64,268.11 C209.87,258.70 199.80,251.00 199.28,251.00 C198.75,251.00 197.12,252.69 195.65,254.75 L 192.98 258.50 L 195.24 260.20 C196.48,261.13 208.07,270.43 221.00,280.87 C233.93,291.30 245.02,299.88 245.65,299.92 C246.28,299.96 251.64,293.84 257.55,286.32 ZM 816.67 255.72 L 832.84 224.50 L 829.03 220.63 L 825.22 216.75 L 794.54 234.01 L 763.86 251.27 L 767.61 255.12 L 771.37 258.96 L 777.60 255.48 C781.02,253.57 784.46,252.00 785.24,252.00 C786.86,252.00 799.00,264.24 799.00,265.88 C799.00,266.48 797.44,269.78 795.53,273.22 L 792.06 279.48 L 795.73 283.24 C797.75,285.31 799.65,286.99 799.95,286.97 C800.25,286.96 807.78,272.90 816.67,255.72 ZM 285.35 256.63 C294.31,252.88 300.72,243.30 299.54,235.42 C298.51,228.57 294.56,223.30 264.77,189.11 L 261.81 185.72 L 258.26 189.27 L 254.71 192.82 L 257.11 195.81 C258.42,197.45 264.73,204.80 271.11,212.15 C285.36,228.53 288.00,232.34 288.00,236.54 C288.00,239.01 287.15,240.54 284.47,242.90 C277.58,248.94 274.69,247.16 255.56,225.11 C246.93,215.15 239.31,207.00 238.62,207.00 C237.94,207.00 236.09,208.34 234.52,209.98 C231.94,212.67 231.80,213.14 233.14,214.73 C255.70,241.66 266.27,252.64 272.50,255.60 C278.26,258.34 280.77,258.54 285.35,256.63 ZM 779.75 217.81 C789.79,204.76 798.00,193.67 798.00,193.16 C798.00,192.18 787.81,184.00 786.58,184.00 C785.78,184.00 764.55,202.42 756.75,209.88 C754.14,212.38 752.00,213.99 752.00,213.46 C752.00,212.93 756.52,203.31 762.03,192.08 C767.55,180.85 771.71,171.37 771.28,171.00 C766.35,166.84 761.10,163.00 760.33,163.00 C759.46,163.00 719.88,213.88 719.22,215.86 C718.93,216.71 725.89,222.51 726.40,221.85 C726.55,221.66 733.12,213.06 740.99,202.74 C748.86,192.42 755.49,184.16 755.71,184.38 C755.93,184.60 751.18,194.65 745.14,206.71 L 734.17 228.64 L 737.53 231.32 C739.38,232.79 741.28,234.00 741.75,234.00 C742.22,234.00 750.90,226.62 761.05,217.60 C771.20,208.58 779.63,201.33 779.80,201.48 C779.96,201.64 773.27,210.61 764.93,221.43 C756.59,232.24 749.93,241.21 750.13,241.35 C750.33,241.49 752.05,242.86 753.94,244.40 L 757.38 247.19 L 759.44 244.37 C760.57,242.81 769.71,230.86 779.75,217.81 ZM 320.50 226.75 C322.41,225.51 323.98,224.17 323.99,223.76 C323.99,223.36 318.65,215.26 312.11,205.76 C305.57,196.27 300.37,188.33 300.56,188.13 C300.75,187.93 310.02,193.19 321.15,199.82 C340.82,211.53 341.47,211.83 343.95,210.37 C350.86,206.27 351.88,208.83 331.39,178.86 C321.10,163.81 312.33,151.09 311.89,150.59 C311.05,149.64 304.02,153.86 304.01,155.31 C304.00,155.76 309.60,164.20 316.44,174.06 C323.27,183.93 328.70,192.00 328.50,192.00 C328.29,192.00 318.65,186.35 307.07,179.45 L 286.01 166.89 L 282.25 169.65 C280.19,171.18 278.36,172.50 278.20,172.59 C277.86,172.79 316.27,229.00 316.74,229.00 C316.90,229.00 318.59,227.99 320.50,226.75 ZM 384.52 190.13 C389.57,187.83 397.63,178.98 399.06,174.15 C400.06,170.75 399.75,169.70 394.57,158.75 C391.51,152.29 388.62,147.00 388.15,147.00 C387.27,147.00 369.85,154.86 369.08,155.60 C368.64,156.03 373.08,166.00 373.70,166.00 C373.90,166.00 376.29,164.87 379.01,163.49 L 383.95 160.99 L 386.00 165.01 C388.35,169.60 387.88,171.26 382.73,176.70 C377.08,182.68 370.34,182.00 363.25,174.74 C354.65,165.94 349.66,149.43 353.41,142.18 C356.73,135.75 366.34,133.89 371.93,138.59 L 375.01 141.19 L 378.43 138.34 C380.32,136.78 381.89,135.03 381.93,134.45 C382.02,133.17 375.31,126.65 372.32,125.12 C369.16,123.50 359.54,123.75 355.22,125.55 C347.91,128.60 342.79,135.52 341.51,144.06 C339.21,159.41 351.54,182.97 365.50,189.93 C370.65,192.49 379.12,192.58 384.52,190.13 ZM 689.81 190.35 C691.54,189.89 693.60,186.77 698.06,177.88 C701.33,171.36 704.00,165.58 704.00,165.03 C704.00,164.18 687.08,155.00 685.54,155.00 C685.26,155.00 683.93,157.18 682.57,159.86 L 680.11 164.71 L 685.06 167.03 C687.78,168.30 690.00,169.74 690.00,170.22 C690.00,171.63 686.82,177.43 685.61,178.23 C683.63,179.54 676.90,179.04 673.27,177.32 C668.38,175.00 665.58,168.67 666.50,162.00 C667.24,156.63 671.80,146.27 675.63,141.24 C684.24,129.95 700.00,132.93 700.00,145.85 L 700.00 150.66 L 704.74 151.75 C710.61,153.09 710.97,152.64 710.97,144.00 C710.97,136.02 708.41,130.94 702.22,126.59 C696.73,122.73 687.34,121.83 680.36,124.50 C671.15,128.02 660.94,141.45 657.53,154.54 C653.11,171.51 658.53,184.86 671.75,189.57 C675.67,190.97 685.85,191.41 689.81,190.35 ZM 643.65 143.00 C647.64,125.68 650.93,110.99 650.96,110.37 C650.99,109.37 643.02,106.65 642.27,107.40 C642.10,107.57 639.84,116.99 637.23,128.35 C634.63,139.70 632.23,148.99 631.91,148.99 C631.58,149.00 629.14,138.42 626.49,125.49 L 621.66 101.98 L 617.75 100.93 C615.61,100.36 613.35,100.05 612.75,100.25 C611.85,100.55 597.15,160.76 597.03,164.63 C597.00,165.62 604.98,168.36 605.72,167.61 C605.88,167.46 608.11,158.26 610.68,147.16 C613.26,136.07 615.62,127.00 615.94,127.00 C616.25,127.00 618.01,134.31 619.85,143.25 C626.22,174.20 625.81,172.88 629.36,173.93 C636.37,176.00 635.69,177.47 643.65,143.00 ZM 438.73 170.14 C446.10,166.38 449.68,159.42 448.67,150.82 C447.99,145.09 443.57,136.44 440.00,133.84 C437.04,131.68 428.85,130.00 421.31,130.00 C412.00,130.00 407.10,125.54 410.59,120.23 C413.91,115.16 421.88,114.51 425.81,119.00 C428.84,122.44 429.44,122.55 434.39,120.48 L 438.02 118.96 L 436.07 115.14 C435.00,113.03 432.50,109.89 430.52,108.16 C427.28,105.31 426.29,105.00 420.45,105.00 C412.70,105.00 406.02,107.75 402.80,112.28 C399.88,116.38 399.23,124.70 401.39,130.36 C404.76,139.18 411.22,142.74 425.59,143.68 C436.20,144.38 438.00,145.54 438.00,151.64 C438.00,156.47 437.12,157.90 432.81,160.10 C429.45,161.81 428.35,161.94 425.42,160.97 C422.68,160.07 418.99,156.48 416.39,152.18 C416.10,151.71 408.00,155.95 408.00,156.56 C408.00,156.85 408.86,158.75 409.91,160.79 C412.06,164.97 416.05,168.97 420.50,171.41 C424.43,173.56 433.23,172.95 438.73,170.14 ZM 494.68 159.16 C499.26,156.83 501.01,154.95 504.13,149.00 C506.22,145.02 506.50,143.16 506.50,133.00 C506.50,119.93 505.01,113.72 499.79,105.04 C495.43,97.80 489.67,93.80 482.78,93.23 C463.85,91.66 453.91,107.17 458.43,131.26 C461.64,148.40 467.89,157.56 478.76,161.06 C482.70,162.32 490.25,161.42 494.68,159.16 ZM 552.86 156.07 C560.49,152.18 565.00,141.75 565.76,126.23 C566.36,113.96 564.88,105.78 560.91,99.53 C556.67,92.83 553.65,91.69 538.82,91.19 L 526.13 90.77 L 525.60 94.13 C525.31,95.99 524.53,110.71 523.88,126.84 C522.86,151.89 522.89,156.32 524.09,157.08 C524.87,157.57 530.81,157.98 537.29,157.98 C546.98,158.00 549.75,157.66 552.86,156.07 ZM 505.66 884.27 L 501.81 883.87 L 502.16 874.52 C502.35,869.37 502.73,864.98 503.00,864.75 C503.27,864.53 507.28,864.64 511.91,865.01 C519.41,865.60 520.57,865.96 522.66,868.39 C526.91,873.34 524.85,881.81 518.88,883.89 C515.75,884.98 513.26,885.05 505.66,884.27 ZM 653.45 867.75 C653.74,863.76 654.26,856.45 654.61,851.50 C655.12,844.25 655.47,842.85 656.37,844.32 C656.99,845.31 660.76,851.13 664.74,857.24 C668.72,863.36 671.86,868.48 671.71,868.62 C671.18,869.15 654.84,875.00 653.89,875.00 C653.30,875.00 653.12,872.15 653.45,867.75 ZM 351.54 839.49 C347.72,837.56 344.24,835.64 343.81,835.21 C343.10,834.50 348.08,819.59 349.51,818.16 C350.53,817.14 363.01,824.24 365.61,827.33 C368.91,831.23 368.88,837.21 365.55,840.55 C362.26,843.83 359.79,843.64 351.54,839.49 ZM 123.86 613.43 C109.24,608.93 100.20,596.39 97.87,577.39 C95.54,558.28 100.98,538.38 114.34,517.25 L 117.03 512.99 L 126.26 517.63 C144.31,526.68 158.03,539.03 164.11,551.68 C166.89,557.47 167.45,559.86 167.78,567.50 C169.20,600.11 149.05,621.19 123.86,613.43 ZM 142.82 450.74 C120.89,438.64 110.64,424.66 110.77,407.00 C110.93,386.35 124.93,370.04 142.50,370.04 C154.69,370.04 163.10,376.96 167.11,390.29 C168.30,394.27 169.49,401.59 169.77,406.63 C170.19,414.47 169.88,417.07 167.58,425.13 C164.13,437.18 154.63,455.02 151.68,454.99 C151.03,454.98 147.04,453.07 142.82,450.74 ZM 305.48 580.00 C300.23,578.87 296.97,575.88 293.55,569.09 C286.73,555.55 283.01,538.24 283.00,520.08 C283.00,500.67 285.91,490.14 293.30,482.78 C297.16,478.95 304.68,475.00 308.11,475.00 C311.64,475.01 316.67,478.46 318.60,482.20 C321.07,486.98 323.73,501.93 325.08,518.65 C326.38,534.78 325.14,556.92 322.39,566.82 C319.82,576.04 312.74,581.56 305.48,580.00 ZM 312.22 565.25 C314.09,561.05 314.39,558.07 314.80,539.56 C315.11,526.03 314.83,515.07 314.03,508.56 C312.77,498.37 310.56,487.23 309.61,486.28 C308.40,485.07 303.82,487.28 300.52,490.69 C296.22,495.11 294.39,501.06 293.53,513.50 C292.44,529.16 295.65,548.30 301.65,562.00 C305.75,571.35 309.06,572.37 312.22,565.25 ZM 572.55 377.39 C572.93,361.50 573.52,344.00 573.87,338.51 C574.49,328.66 574.54,328.50 577.50,327.01 C581.84,324.82 590.80,325.11 595.02,327.58 C602.64,332.03 608.00,346.44 608.00,362.50 C608.00,386.05 595.63,402.35 575.18,405.73 L 571.85 406.29 L 572.55 377.39 ZM 590.66 382.70 C592.40,380.14 594.32,375.75 594.91,372.97 C597.93,358.90 593.85,339.40 587.64,338.18 C586.23,337.90 586.00,338.95 586.00,345.68 C586.00,349.98 585.70,361.32 585.33,370.89 C584.59,390.43 584.93,391.18 590.66,382.70 ZM 275.00 335.09 C275.00,334.62 278.21,329.79 282.14,324.37 C332.66,254.60 405.48,210.16 490.00,197.53 C514.47,193.87 551.94,193.65 576.50,197.00 C624.74,203.60 672.59,222.18 711.42,249.38 C719.85,255.28 719.85,255.45 711.24,256.46 C702.93,257.43 693.64,260.71 687.50,264.83 C680.62,269.46 666.95,282.91 660.93,290.98 C658.49,294.25 656.01,296.94 655.40,296.96 C654.80,296.98 653.45,296.03 652.40,294.85 C648.50,290.43 636.05,283.25 627.35,280.40 C619.33,277.77 617.28,277.51 605.50,277.59 C593.89,277.66 586.48,278.69 536.00,287.27 C504.92,292.55 454.98,301.22 425.00,306.53 L 370.50 316.19 L 346.00 316.41 C323.16,316.62 320.85,316.81 311.88,319.22 C301.67,321.98 291.19,326.45 281.14,332.34 C277.76,334.32 275.00,335.55 275.00,335.09 ZM 898.67 471.22 C898.45,470.82 897.95,467.63 897.57,464.13 C896.88,457.83 896.90,457.76 899.19,458.29 C900.46,458.59 906.12,459.63 911.77,460.60 C917.42,461.56 921.70,462.67 921.27,463.05 C920.85,463.44 918.03,464.67 915.00,465.78 C911.97,466.90 907.16,468.74 904.29,469.87 C901.42,471.01 898.90,471.62 898.67,471.22 ZM 800.51 250.01 C797.82,247.28 795.82,244.88 796.06,244.68 C797.68,243.33 816.24,232.90 816.52,233.19 C816.71,233.38 814.29,238.36 811.13,244.25 L 805.39 254.97 L 800.51 250.01 ZM 477.91 147.72 C471.29,143.25 467.43,132.04 468.15,119.32 C468.63,110.90 471.24,106.61 476.92,104.91 C487.25,101.81 494.73,111.11 496.59,129.35 C498.22,145.29 488.49,154.85 477.91,147.72 ZM 533.53 146.04 C533.20,145.52 533.40,136.63 533.96,126.29 C534.53,115.96 534.99,106.20 534.99,104.61 L 535.00 101.72 L 541.65 102.40 C549.67,103.23 551.46,104.09 553.73,108.28 C555.94,112.37 556.18,130.15 554.11,137.28 C552.03,144.44 548.44,147.00 540.48,147.00 C536.98,147.00 533.85,146.57 533.53,146.04 Z" fill="rgb(253,252,252)"/>
</g>
</svg>